solid front_back
facet normal 0.0 0.0 1.0
  outer loop
    vertex 110.0 60.0 13.999999999999995
    vertex 90.0 70.0 13.999999999999995
    vertex 90.0 60.0 13.999999999999995
  endloop
endfacet
facet normal 0.0 0.0 1.0
  outer loop
    vertex 90.0 70.0 13.999999999999995
    vertex 110.0 60.0 13.999999999999995
    vertex 110.0 70.0 13.999999999999995
  endloop
endfacet
facet normal 1.0 -0.0 0.0
  outer loop
    vertex 110.0 70.0 4.000000000000002
    vertex 110.0 60.0 13.999999999999995
    vertex 110.0 60.0 4.000000000000002
  endloop
endfacet
facet normal 1.0 -0.0 0.0
  outer loop
    vertex 110.0 60.0 13.999999999999995
    vertex 110.0 70.0 4.000000000000002
    vertex 110.0 70.0 13.999999999999995
  endloop
endfacet
facet normal 0.0 1.0 0.0
  outer loop
    vertex 90.0 70.0 13.999999999999995
    vertex 110.0 70.0 4.000000000000002
    vertex 90.0 70.0 4.000000000000002
  endloop
endfacet
facet normal 0.0 1.0 0.0
  outer loop
    vertex 110.0 70.0 4.000000000000002
    vertex 90.0 70.0 13.999999999999995
    vertex 110.0 70.0 13.999999999999995
  endloop
endfacet
facet normal -1.0 -0.0 -0.0
  outer loop
    vertex 90.0 70.0 13.999999999999995
    vertex 90.0 60.0 4.000000000000002
    vertex 90.0 60.0 13.999999999999995
  endloop
endfacet
facet normal -1.0 -0.0 -0.0
  outer loop
    vertex 90.0 60.0 4.000000000000002
    vertex 90.0 70.0 13.999999999999995
    vertex 90.0 70.0 4.000000000000002
  endloop
endfacet
facet normal 0.0 -1.0 0.0
  outer loop
    vertex 110.0 60.0 13.999999999999995
    vertex 90.0 60.0 4.000000000000002
    vertex 110.0 60.0 4.000000000000002
  endloop
endfacet
facet normal 0.0 -1.0 0.0
  outer loop
    vertex 90.0 60.0 4.000000000000002
    vertex 110.0 60.0 13.999999999999995
    vertex 90.0 60.0 13.999999999999995
  endloop
endfacet
facet normal -0.0 -0.0 1.0
  outer loop
    vertex 70.0 50.0 10.0
    vertex 69.9006286765689 50.0 10.0
    vertex 69.97887263861985 49.080952618300735 10.0
  endloop
endfacet
facet normal -0.9963955184402232 -0.08482906832117629 4.6706456245347756e-20
  outer loop
    vertex 69.9006286765689 50.0 4.000000000000002
    vertex 69.97887263861985 49.080952618300735 2.009226118815377e-14
    vertex 69.97887263861985 49.080952618300735 4.000000000000002
  endloop
endfacet
facet normal -0.9963955184402232 -0.08482906832117629 4.6706456245347756e-20
  outer loop
    vertex 69.97887263861985 49.080952618300735 2.009226118815377e-14
    vertex 69.9006286765689 50.0 4.000000000000002
    vertex 69.9006286765689 50.0 2.009226118815377e-14
  endloop
endfacet
facet normal -0.0 -1.0 -0.0
  outer loop
    vertex 200.0 0.0 4.000000000000002
    vertex 0.0 0.0 1.762479051592436e-15
    vertex 200.0 0.0 1.762479051592436e-15
  endloop
endfacet
facet normal -0.0 -1.0 -0.0
  outer loop
    vertex 0.0 0.0 1.762479051592436e-15
    vertex 200.0 0.0 4.000000000000002
    vertex 0.0 0.0 4.000000000000002
  endloop
endfacet
facet normal 1.0 0.0 0.0
  outer loop
    vertex 200.0 140.0 1.762479051592436e-15
    vertex 200.0 0.0 4.000000000000002
    vertex 200.0 0.0 1.762479051592436e-15
  endloop
endfacet
facet normal 1.0 0.0 0.0
  outer loop
    vertex 200.0 0.0 4.000000000000002
    vertex 200.0 140.0 1.762479051592436e-15
    vertex 200.0 140.0 4.000000000000002
  endloop
endfacet
facet normal -1.0 0.0 0.0
  outer loop
    vertex 0.0 140.0 4.000000000000002
    vertex 0.0 0.0 1.762479051592436e-15
    vertex 0.0 0.0 4.000000000000002
  endloop
endfacet
facet normal -1.0 0.0 0.0
  outer loop
    vertex 0.0 0.0 1.762479051592436e-15
    vertex 0.0 140.0 4.000000000000002
    vertex 0.0 140.0 1.762479051592436e-15
  endloop
endfacet
facet normal -0.0 1.0 0.0
  outer loop
    vertex 0.0 140.0 4.000000000000002
    vertex 200.0 140.0 1.762479051592436e-15
    vertex 0.0 140.0 1.762479051592436e-15
  endloop
endfacet
facet normal -0.0 1.0 0.0
  outer loop
    vertex 200.0 140.0 1.762479051592436e-15
    vertex 0.0 140.0 4.000000000000002
    vertex 200.0 140.0 4.000000000000002
  endloop
endfacet
facet normal 0.8990864695610468 -0.43777108201919046 -0.0
  outer loop
    vertex 21.65745932222995 105.5138022307435 2.1502244429427717e-14
    vertex 20.514647474229616 103.16671556377605 4.000000000000002
    vertex 20.514647474229616 103.16671556377605 2.1502244429427717e-14
  endloop
endfacet
facet normal 0.8990864695610468 -0.43777108201919046 -0.0
  outer loop
    vertex 20.514647474229616 103.16671556377605 4.000000000000002
    vertex 21.65745932222995 105.5138022307435 2.1502244429427717e-14
    vertex 21.65745932222995 105.5138022307435 4.000000000000002
  endloop
endfacet
facet normal 0.9817543344377797 -0.1901536926084584 -0.0
  outer loop
    vertex 20.514647474229616 103.16671556377605 2.1502244429427717e-14
    vertex 20.01824672557433 100.60382246438216 4.000000000000002
    vertex 20.01824672557433 100.60382246438216 2.1502244429427717e-14
  endloop
endfacet
facet normal 0.9817543344377797 -0.1901536926084584 -0.0
  outer loop
    vertex 20.01824672557433 100.60382246438216 4.000000000000002
    vertex 20.514647474229616 103.16671556377605 2.1502244429427717e-14
    vertex 20.514647474229616 103.16671556377605 4.000000000000002
  endloop
endfacet
facet normal 0.9975172638483262 0.07042235670970501 0.0
  outer loop
    vertex 20.01824672557433 100.60382246438216 2.1502244429427717e-14
    vertex 20.20208596694393 97.99977986190443 4.000000000000002
    vertex 20.20208596694393 97.99977986190443 2.1502244429427717e-14
  endloop
endfacet
facet normal 0.9975172638483262 0.07042235670970501 0.0
  outer loop
    vertex 20.20208596694393 97.99977986190443 4.000000000000002
    vertex 20.01824672557433 100.60382246438216 2.1502244429427717e-14
    vertex 20.01824672557433 100.60382246438216 4.000000000000002
  endloop
endfacet
facet normal 0.9453010402028303 0.3261992387965475 0.0
  outer loop
    vertex 20.20208596694393 97.99977986190443 2.1502244429427717e-14
    vertex 21.053636857847785 95.53204895631784 4.000000000000002
    vertex 21.053636857847785 95.53204895631784 2.1502244429427717e-14
  endloop
endfacet
facet normal 0.9453010402028303 0.3261992387965475 0.0
  outer loop
    vertex 21.053636857847785 95.53204895631784 4.000000000000002
    vertex 20.20208596694393 97.99977986190443 2.1502244429427717e-14
    vertex 20.20208596694393 97.99977986190443 4.000000000000002
  endloop
endfacet
facet normal 0.8286641128513434 0.5597461818291358 0.0
  outer loop
    vertex 21.053636857847785 95.53204895631784 2.1502244429427717e-14
    vertex 22.51486761232518 93.36880153071998 4.000000000000002
    vertex 22.51486761232518 93.36880153071998 2.1502244429427717e-14
  endloop
endfacet
facet normal 0.8286641128513434 0.5597461818291358 0.0
  outer loop
    vertex 22.51486761232518 93.36880153071998 4.000000000000002
    vertex 21.053636857847785 95.53204895631784 2.1502244429427717e-14
    vertex 21.053636857847785 95.53204895631784 4.000000000000002
  endloop
endfacet
facet normal 0.6555550956412319 0.7551473475943719 0.0
  outer loop
    vertex 22.51486761232518 93.36880153071998 4.000000000000002
    vertex 24.486197769256485 91.65745932222994 2.1502244429427717e-14
    vertex 22.51486761232518 93.36880153071998 2.1502244429427717e-14
  endloop
endfacet
facet normal 0.6555550956412319 0.7551473475943719 0.0
  outer loop
    vertex 24.486197769256485 91.65745932222994 2.1502244429427717e-14
    vertex 22.51486761232518 93.36880153071998 4.000000000000002
    vertex 24.486197769256485 91.65745932222994 4.000000000000002
  endloop
endfacet
facet normal 0.7551473475943719 -0.6555550956412319 -0.0
  outer loop
    vertex 23.368801530719985 107.48513238767481 2.1502244429427717e-14
    vertex 21.65745932222995 105.5138022307435 4.000000000000002
    vertex 21.65745932222995 105.5138022307435 2.1502244429427717e-14
  endloop
endfacet
facet normal 0.7551473475943719 -0.6555550956412319 -0.0
  outer loop
    vertex 21.65745932222995 105.5138022307435 4.000000000000002
    vertex 23.368801530719985 107.48513238767481 2.1502244429427717e-14
    vertex 23.368801530719985 107.48513238767481 4.000000000000002
  endloop
endfacet
facet normal -0.19015369260845988 -0.9817543344377795 -0.0
  outer loop
    vertex 33.16671556377606 109.4853525257704 4.000000000000002
    vertex 30.603822464382166 109.98175327442567 2.1502244429427717e-14
    vertex 33.16671556377606 109.4853525257704 2.1502244429427717e-14
  endloop
endfacet
facet normal -0.19015369260845988 -0.9817543344377795 -0.0
  outer loop
    vertex 30.603822464382166 109.98175327442567 2.1502244429427717e-14
    vertex 33.16671556377606 109.4853525257704 4.000000000000002
    vertex 30.603822464382166 109.98175327442567 4.000000000000002
  endloop
endfacet
facet normal 0.07042235670970794 -0.997517263848326 -0.0
  outer loop
    vertex 30.603822464382166 109.98175327442567 4.000000000000002
    vertex 27.999779861904432 109.79791403305607 2.1502244429427717e-14
    vertex 30.603822464382166 109.98175327442567 2.1502244429427717e-14
  endloop
endfacet
facet normal 0.07042235670970794 -0.997517263848326 -0.0
  outer loop
    vertex 27.999779861904432 109.79791403305607 2.1502244429427717e-14
    vertex 30.603822464382166 109.98175327442567 4.000000000000002
    vertex 27.999779861904432 109.79791403305607 4.000000000000002
  endloop
endfacet
facet normal 0.3261992387965463 -0.9453010402028307 -0.0
  outer loop
    vertex 27.999779861904432 109.79791403305607 4.000000000000002
    vertex 25.532048956317848 108.94636314215222 2.1502244429427717e-14
    vertex 27.999779861904432 109.79791403305607 2.1502244429427717e-14
  endloop
endfacet
facet normal 0.3261992387965463 -0.9453010402028307 -0.0
  outer loop
    vertex 25.532048956317848 108.94636314215222 2.1502244429427717e-14
    vertex 27.999779861904432 109.79791403305607 4.000000000000002
    vertex 25.532048956317848 108.94636314215222 4.000000000000002
  endloop
endfacet
facet normal 0.559746181829141 -0.82866411285134 -0.0
  outer loop
    vertex 25.532048956317848 108.94636314215222 4.000000000000002
    vertex 23.368801530719985 107.48513238767481 2.1502244429427717e-14
    vertex 25.532048956317848 108.94636314215222 2.1502244429427717e-14
  endloop
endfacet
facet normal 0.559746181829141 -0.82866411285134 -0.0
  outer loop
    vertex 23.368801530719985 107.48513238767481 2.1502244429427717e-14
    vertex 25.532048956317848 108.94636314215222 4.000000000000002
    vertex 23.368801530719985 107.48513238767481 4.000000000000002
  endloop
endfacet
facet normal -0.43777108201919057 -0.8990864695610469 -0.0
  outer loop
    vertex 35.513802230743515 108.34254067777005 4.000000000000002
    vertex 33.16671556377606 109.4853525257704 2.1502244429427717e-14
    vertex 35.513802230743515 108.34254067777005 2.1502244429427717e-14
  endloop
endfacet
facet normal -0.43777108201919057 -0.8990864695610469 -0.0
  outer loop
    vertex 33.16671556377606 109.4853525257704 2.1502244429427717e-14
    vertex 35.513802230743515 108.34254067777005 4.000000000000002
    vertex 33.16671556377606 109.4853525257704 4.000000000000002
  endloop
endfacet
facet normal -0.7551473475943719 0.6555550956412319 -0.0
  outer loop
    vertex 38.34254067777005 94.48619776925648 4.000000000000002
    vertex 36.631198469280015 92.51486761232518 2.1502244429427717e-14
    vertex 36.631198469280015 92.51486761232518 4.000000000000002
  endloop
endfacet
facet normal -0.7551473475943719 0.6555550956412319 -0.0
  outer loop
    vertex 36.631198469280015 92.51486761232518 2.1502244429427717e-14
    vertex 38.34254067777005 94.48619776925648 4.000000000000002
    vertex 38.34254067777005 94.48619776925648 2.1502244429427717e-14
  endloop
endfacet
facet normal -0.8990864695610477 0.4377710820191888 -0.0
  outer loop
    vertex 39.48535252577039 96.83328443622395 4.000000000000002
    vertex 38.34254067777005 94.48619776925648 2.1502244429427717e-14
    vertex 38.34254067777005 94.48619776925648 4.000000000000002
  endloop
endfacet
facet normal -0.8990864695610477 0.4377710820191888 -0.0
  outer loop
    vertex 38.34254067777005 94.48619776925648 2.1502244429427717e-14
    vertex 39.48535252577039 96.83328443622395 4.000000000000002
    vertex 39.48535252577039 96.83328443622395 2.1502244429427717e-14
  endloop
endfacet
facet normal -0.6555550956412319 -0.7551473475943719 -0.0
  outer loop
    vertex 37.48513238767482 106.63119846928001 4.000000000000002
    vertex 35.513802230743515 108.34254067777005 2.1502244429427717e-14
    vertex 37.48513238767482 106.63119846928001 2.1502244429427717e-14
  endloop
endfacet
facet normal -0.6555550956412319 -0.7551473475943719 -0.0
  outer loop
    vertex 35.513802230743515 108.34254067777005 2.1502244429427717e-14
    vertex 37.48513238767482 106.63119846928001 4.000000000000002
    vertex 35.513802230743515 108.34254067777005 4.000000000000002
  endloop
endfacet
facet normal -0.07042235670970363 0.9975172638483263 -0.0
  outer loop
    vertex 29.39617753561783 90.01824672557433 4.000000000000002
    vertex 32.000220138095564 90.20208596694393 2.1502244429427717e-14
    vertex 29.39617753561783 90.01824672557433 2.1502244429427717e-14
  endloop
endfacet
facet normal -0.07042235670970363 0.9975172638483263 -0.0
  outer loop
    vertex 32.000220138095564 90.20208596694393 2.1502244429427717e-14
    vertex 29.39617753561783 90.01824672557433 4.000000000000002
    vertex 32.000220138095564 90.20208596694393 4.000000000000002
  endloop
endfacet
facet normal 0.43777108201919096 0.8990864695610465 0.0
  outer loop
    vertex 24.486197769256485 91.65745932222994 4.000000000000002
    vertex 26.83328443622394 90.5146474742296 2.1502244429427717e-14
    vertex 24.486197769256485 91.65745932222994 2.1502244429427717e-14
  endloop
endfacet
facet normal 0.43777108201919096 0.8990864695610465 0.0
  outer loop
    vertex 26.83328443622394 90.5146474742296 2.1502244429427717e-14
    vertex 24.486197769256485 91.65745932222994 4.000000000000002
    vertex 26.83328443622394 90.5146474742296 4.000000000000002
  endloop
endfacet
facet normal 0.19015369260845572 0.9817543344377804 0.0
  outer loop
    vertex 26.83328443622394 90.5146474742296 4.000000000000002
    vertex 29.39617753561783 90.01824672557433 2.1502244429427717e-14
    vertex 26.83328443622394 90.5146474742296 2.1502244429427717e-14
  endloop
endfacet
facet normal 0.19015369260845572 0.9817543344377804 0.0
  outer loop
    vertex 29.39617753561783 90.01824672557433 2.1502244429427717e-14
    vertex 26.83328443622394 90.5146474742296 4.000000000000002
    vertex 29.39617753561783 90.01824672557433 4.000000000000002
  endloop
endfacet
facet normal -0.3261992387965463 0.9453010402028307 -0.0
  outer loop
    vertex 32.000220138095564 90.20208596694393 4.000000000000002
    vertex 34.46795104368215 91.05363685784778 2.1502244429427717e-14
    vertex 32.000220138095564 90.20208596694393 2.1502244429427717e-14
  endloop
endfacet
facet normal -0.3261992387965463 0.9453010402028307 -0.0
  outer loop
    vertex 34.46795104368215 91.05363685784778 2.1502244429427717e-14
    vertex 32.000220138095564 90.20208596694393 4.000000000000002
    vertex 34.46795104368215 91.05363685784778 4.000000000000002
  endloop
endfacet
facet normal -0.559746181829137 0.8286641128513426 -0.0
  outer loop
    vertex 34.46795104368215 91.05363685784778 4.000000000000002
    vertex 36.631198469280015 92.51486761232518 2.1502244429427717e-14
    vertex 34.46795104368215 91.05363685784778 2.1502244429427717e-14
  endloop
endfacet
facet normal -0.559746181829137 0.8286641128513426 -0.0
  outer loop
    vertex 36.631198469280015 92.51486761232518 2.1502244429427717e-14
    vertex 34.46795104368215 91.05363685784778 4.000000000000002
    vertex 36.631198469280015 92.51486761232518 4.000000000000002
  endloop
endfacet
facet normal -0.9817543344377798 0.19015369260845819 -0.0
  outer loop
    vertex 39.98175327442567 99.39617753561782 4.000000000000002
    vertex 39.48535252577039 96.83328443622395 2.1502244429427717e-14
    vertex 39.48535252577039 96.83328443622395 4.000000000000002
  endloop
endfacet
facet normal -0.9817543344377798 0.19015369260845819 -0.0
  outer loop
    vertex 39.48535252577039 96.83328443622395 2.1502244429427717e-14
    vertex 39.98175327442567 99.39617753561782 4.000000000000002
    vertex 39.98175327442567 99.39617753561782 2.1502244429427717e-14
  endloop
endfacet
facet normal -0.9975172638483263 -0.07042235670970363 -0.0
  outer loop
    vertex 39.797914033056074 102.00022013809556 4.000000000000002
    vertex 39.98175327442567 99.39617753561782 2.1502244429427717e-14
    vertex 39.98175327442567 99.39617753561782 4.000000000000002
  endloop
endfacet
facet normal -0.9975172638483263 -0.07042235670970363 -0.0
  outer loop
    vertex 39.98175327442567 99.39617753561782 2.1502244429427717e-14
    vertex 39.797914033056074 102.00022013809556 4.000000000000002
    vertex 39.797914033056074 102.00022013809556 2.1502244429427717e-14
  endloop
endfacet
facet normal -0.945301040202831 -0.3261992387965456 -0.0
  outer loop
    vertex 38.94636314215222 104.46795104368215 4.000000000000002
    vertex 39.797914033056074 102.00022013809556 2.1502244429427717e-14
    vertex 39.797914033056074 102.00022013809556 4.000000000000002
  endloop
endfacet
facet normal -0.945301040202831 -0.3261992387965456 -0.0
  outer loop
    vertex 39.797914033056074 102.00022013809556 2.1502244429427717e-14
    vertex 38.94636314215222 104.46795104368215 4.000000000000002
    vertex 38.94636314215222 104.46795104368215 2.1502244429427717e-14
  endloop
endfacet
facet normal -0.8286641128513419 -0.559746181829138 -0.0
  outer loop
    vertex 37.48513238767482 106.63119846928001 4.000000000000002
    vertex 38.94636314215222 104.46795104368215 2.1502244429427717e-14
    vertex 38.94636314215222 104.46795104368215 4.000000000000002
  endloop
endfacet
facet normal -0.8286641128513419 -0.559746181829138 -0.0
  outer loop
    vertex 38.94636314215222 104.46795104368215 2.1502244429427717e-14
    vertex 37.48513238767482 106.63119846928001 4.000000000000002
    vertex 37.48513238767482 106.63119846928001 2.1502244429427717e-14
  endloop
endfacet
facet normal 0.0 -1.0 0.0
  outer loop
    vertex 30.099371323431132 50.0 10.0
    vertex 30.000000000000014 50.0 2.009226118815377e-14
    vertex 30.099371323431132 50.0 2.009226118815377e-14
  endloop
endfacet
facet normal 0.0 -1.0 0.0
  outer loop
    vertex 30.000000000000014 50.0 2.009226118815377e-14
    vertex 30.099371323431132 50.0 10.0
    vertex 30.000000000000014 50.0 10.0
  endloop
endfacet
facet normal -0.0 -0.0 1.0
  outer loop
    vertex 0.0 0.0 1.762479051592436e-15
    vertex 21.053636857847785 95.53204895631784 2.1502244429427717e-14
    vertex 0.0 140.0 1.762479051592436e-15
  endloop
endfacet
facet normal -0.0 -0.0 1.0
  outer loop
    vertex 21.053636857847785 95.53204895631784 2.1502244429427717e-14
    vertex 0.0 0.0 1.762479051592436e-15
    vertex 22.51486761232518 93.36880153071998 2.1502244429427717e-14
  endloop
endfacet
facet normal -0.0 -0.0 1.0
  outer loop
    vertex 22.51486761232518 93.36880153071998 2.1502244429427717e-14
    vertex 0.0 0.0 1.762479051592436e-15
    vertex 24.486197769256485 91.65745932222994 2.1502244429427717e-14
  endloop
endfacet
facet normal -0.0 -0.0 1.0
  outer loop
    vertex 24.486197769256485 91.65745932222994 2.1502244429427717e-14
    vertex 0.0 0.0 1.762479051592436e-15
    vertex 200.0 0.0 1.762479051592436e-15
  endloop
endfacet
facet normal -0.0 -0.0 1.0
  outer loop
    vertex 0.0 140.0 1.762479051592436e-15
    vertex 21.053636857847785 95.53204895631784 2.1502244429427717e-14
    vertex 20.20208596694393 97.99977986190443 2.1502244429427717e-14
  endloop
endfacet
facet normal -0.0 -0.0 1.0
  outer loop
    vertex 0.0 140.0 1.762479051592436e-15
    vertex 20.20208596694393 97.99977986190443 2.1502244429427717e-14
    vertex 20.01824672557433 100.60382246438216 2.1502244429427717e-14
  endloop
endfacet
facet normal -0.0 -0.0 1.0
  outer loop
    vertex 24.486197769256485 91.65745932222994 2.1502244429427717e-14
    vertex 200.0 0.0 1.762479051592436e-15
    vertex 26.83328443622394 90.5146474742296 2.1502244429427717e-14
  endloop
endfacet
facet normal -0.0 -0.0 1.0
  outer loop
    vertex 26.83328443622394 90.5146474742296 2.1502244429427717e-14
    vertex 200.0 0.0 1.762479051592436e-15
    vertex 29.39617753561783 90.01824672557433 2.1502244429427717e-14
  endloop
endfacet
facet normal -0.0 -0.0 1.0
  outer loop
    vertex 29.39617753561783 90.01824672557433 2.1502244429427717e-14
    vertex 200.0 0.0 1.762479051592436e-15
    vertex 32.000220138095564 90.20208596694393 2.1502244429427717e-14
  endloop
endfacet
facet normal -0.0 -0.0 1.0
  outer loop
    vertex 32.000220138095564 90.20208596694393 2.1502244429427717e-14
    vertex 200.0 0.0 1.762479051592436e-15
    vertex 34.46795104368215 91.05363685784778 2.1502244429427717e-14
  endloop
endfacet
facet normal -0.0 -0.0 1.0
  outer loop
    vertex 34.46795104368215 91.05363685784778 2.1502244429427717e-14
    vertex 200.0 0.0 1.762479051592436e-15
    vertex 36.631198469280015 92.51486761232518 2.1502244429427717e-14
  endloop
endfacet
facet normal -0.0 -0.0 1.0
  outer loop
    vertex 36.631198469280015 92.51486761232518 2.1502244429427717e-14
    vertex 200.0 0.0 1.762479051592436e-15
    vertex 38.34254067777005 94.48619776925648 2.1502244429427717e-14
  endloop
endfacet
facet normal -0.0 -0.0 1.0
  outer loop
    vertex 38.34254067777005 94.48619776925648 2.1502244429427717e-14
    vertex 200.0 0.0 1.762479051592436e-15
    vertex 39.48535252577039 96.83328443622395 2.1502244429427717e-14
  endloop
endfacet
facet normal -0.0 -0.0 1.0
  outer loop
    vertex 39.48535252577039 96.83328443622395 2.1502244429427717e-14
    vertex 200.0 0.0 1.762479051592436e-15
    vertex 39.98175327442567 99.39617753561782 2.1502244429427717e-14
  endloop
endfacet
facet normal -0.0 -0.0 1.0
  outer loop
    vertex 39.98175327442567 99.39617753561782 2.1502244429427717e-14
    vertex 200.0 0.0 1.762479051592436e-15
    vertex 160.34074173710934 97.41180954897479 2.255973186038318e-14
  endloop
endfacet
facet normal -0.0 -0.0 1.0
  outer loop
    vertex 39.98175327442567 99.39617753561782 2.1502244429427717e-14
    vertex 160.34074173710934 97.41180954897479 2.255973186038318e-14
    vertex 160.0 100.0 2.255973186038318e-14
  endloop
endfacet
facet normal -0.0 -0.0 1.0
  outer loop
    vertex 160.34074173710934 97.41180954897479 2.255973186038318e-14
    vertex 200.0 0.0 1.762479051592436e-15
    vertex 161.33974596215563 95.0 2.255973186038318e-14
  endloop
endfacet
facet normal -0.0 -0.0 1.0
  outer loop
    vertex 161.33974596215563 95.0 2.255973186038318e-14
    vertex 200.0 0.0 1.762479051592436e-15
    vertex 162.92893218813452 92.92893218813451 2.255973186038318e-14
  endloop
endfacet
facet normal -0.0 -0.0 1.0
  outer loop
    vertex 162.92893218813452 92.92893218813451 2.255973186038318e-14
    vertex 200.0 0.0 1.762479051592436e-15
    vertex 165.0 91.3397459621556 2.255973186038318e-14
  endloop
endfacet
facet normal -0.0 -0.0 1.0
  outer loop
    vertex 165.0 91.3397459621556 2.255973186038318e-14
    vertex 200.0 0.0 1.762479051592436e-15
    vertex 167.4118095489748 90.34074173710931 2.255973186038318e-14
  endloop
endfacet
facet normal -0.0 -0.0 1.0
  outer loop
    vertex 167.4118095489748 90.34074173710931 2.255973186038318e-14
    vertex 200.0 0.0 1.762479051592436e-15
    vertex 170.0 90.0 2.255973186038318e-14
  endloop
endfacet
facet normal -0.0 -0.0 1.0
  outer loop
    vertex 170.0 90.0 2.255973186038318e-14
    vertex 200.0 0.0 1.762479051592436e-15
    vertex 172.5881904510252 90.34074173710931 2.255973186038318e-14
  endloop
endfacet
facet normal -0.0 -0.0 1.0
  outer loop
    vertex 172.5881904510252 90.34074173710931 2.255973186038318e-14
    vertex 200.0 0.0 1.762479051592436e-15
    vertex 175.00000000000003 91.3397459621556 2.255973186038318e-14
  endloop
endfacet
facet normal -0.0 -0.0 1.0
  outer loop
    vertex 175.00000000000003 91.3397459621556 2.255973186038318e-14
    vertex 200.0 0.0 1.762479051592436e-15
    vertex 177.07106781186548 92.92893218813451 2.255973186038318e-14
  endloop
endfacet
facet normal -0.0 -0.0 1.0
  outer loop
    vertex 177.07106781186548 92.92893218813451 2.255973186038318e-14
    vertex 200.0 0.0 1.762479051592436e-15
    vertex 178.6602540378444 95.0 2.255973186038318e-14
  endloop
endfacet
facet normal -0.0 -0.0 1.0
  outer loop
    vertex 178.6602540378444 95.0 2.255973186038318e-14
    vertex 200.0 0.0 1.762479051592436e-15
    vertex 179.6592582628907 97.41180954897479 2.255973186038318e-14
  endloop
endfacet
facet normal -0.0 -0.0 1.0
  outer loop
    vertex 179.6592582628907 97.41180954897479 2.255973186038318e-14
    vertex 200.0 0.0 1.762479051592436e-15
    vertex 180.0 100.0 2.255973186038318e-14
  endloop
endfacet
facet normal -0.0 -0.0 1.0
  outer loop
    vertex 0.0 140.0 1.762479051592436e-15
    vertex 27.999779861904432 109.79791403305607 2.1502244429427717e-14
    vertex 200.0 140.0 1.762479051592436e-15
  endloop
endfacet
facet normal -0.0 -0.0 1.0
  outer loop
    vertex 27.999779861904432 109.79791403305607 2.1502244429427717e-14
    vertex 0.0 140.0 1.762479051592436e-15
    vertex 25.532048956317848 108.94636314215222 2.1502244429427717e-14
  endloop
endfacet
facet normal -0.0 -0.0 1.0
  outer loop
    vertex 25.532048956317848 108.94636314215222 2.1502244429427717e-14
    vertex 0.0 140.0 1.762479051592436e-15
    vertex 23.368801530719985 107.48513238767481 2.1502244429427717e-14
  endloop
endfacet
facet normal -0.0 -0.0 1.0
  outer loop
    vertex 23.368801530719985 107.48513238767481 2.1502244429427717e-14
    vertex 0.0 140.0 1.762479051592436e-15
    vertex 21.65745932222995 105.5138022307435 2.1502244429427717e-14
  endloop
endfacet
facet normal -0.0 -0.0 1.0
  outer loop
    vertex 21.65745932222995 105.5138022307435 2.1502244429427717e-14
    vertex 0.0 140.0 1.762479051592436e-15
    vertex 20.514647474229616 103.16671556377605 2.1502244429427717e-14
  endloop
endfacet
facet normal -0.0 -0.0 1.0
  outer loop
    vertex 20.514647474229616 103.16671556377605 2.1502244429427717e-14
    vertex 0.0 140.0 1.762479051592436e-15
    vertex 20.01824672557433 100.60382246438216 2.1502244429427717e-14
  endloop
endfacet
facet normal -0.0 -0.0 1.0
  outer loop
    vertex 200.0 140.0 1.762479051592436e-15
    vertex 27.999779861904432 109.79791403305607 2.1502244429427717e-14
    vertex 30.603822464382166 109.98175327442567 2.1502244429427717e-14
  endloop
endfacet
facet normal -0.0 -0.0 1.0
  outer loop
    vertex 200.0 140.0 1.762479051592436e-15
    vertex 30.603822464382166 109.98175327442567 2.1502244429427717e-14
    vertex 33.16671556377606 109.4853525257704 2.1502244429427717e-14
  endloop
endfacet
facet normal -0.0 -0.0 1.0
  outer loop
    vertex 200.0 140.0 1.762479051592436e-15
    vertex 33.16671556377606 109.4853525257704 2.1502244429427717e-14
    vertex 35.513802230743515 108.34254067777005 2.1502244429427717e-14
  endloop
endfacet
facet normal -0.0 -0.0 1.0
  outer loop
    vertex 200.0 140.0 1.762479051592436e-15
    vertex 35.513802230743515 108.34254067777005 2.1502244429427717e-14
    vertex 37.48513238767482 106.63119846928001 2.1502244429427717e-14
  endloop
endfacet
facet normal -0.0 -0.0 1.0
  outer loop
    vertex 200.0 140.0 1.762479051592436e-15
    vertex 37.48513238767482 106.63119846928001 2.1502244429427717e-14
    vertex 38.94636314215222 104.46795104368215 2.1502244429427717e-14
  endloop
endfacet
facet normal -0.0 -0.0 1.0
  outer loop
    vertex 200.0 140.0 1.762479051592436e-15
    vertex 38.94636314215222 104.46795104368215 2.1502244429427717e-14
    vertex 39.797914033056074 102.00022013809556 2.1502244429427717e-14
  endloop
endfacet
facet normal -0.0 -0.0 1.0
  outer loop
    vertex 200.0 140.0 1.762479051592436e-15
    vertex 39.797914033056074 102.00022013809556 2.1502244429427717e-14
    vertex 39.98175327442567 99.39617753561782 2.1502244429427717e-14
  endloop
endfacet
facet normal -0.0 -0.0 1.0
  outer loop
    vertex 200.0 140.0 1.762479051592436e-15
    vertex 39.98175327442567 99.39617753561782 2.1502244429427717e-14
    vertex 162.92893218813452 107.07106781186546 2.255973186038318e-14
  endloop
endfacet
facet normal -0.0 -0.0 1.0
  outer loop
    vertex 162.92893218813452 107.07106781186546 2.255973186038318e-14
    vertex 39.98175327442567 99.39617753561782 2.1502244429427717e-14
    vertex 161.3397459621556 104.99999999999999 2.255973186038318e-14
  endloop
endfacet
facet normal -0.0 -0.0 1.0
  outer loop
    vertex 161.3397459621556 104.99999999999999 2.255973186038318e-14
    vertex 39.98175327442567 99.39617753561782 2.1502244429427717e-14
    vertex 160.3407417371093 102.5881904510252 2.255973186038318e-14
  endloop
endfacet
facet normal -0.0 -0.0 1.0
  outer loop
    vertex 160.3407417371093 102.5881904510252 2.255973186038318e-14
    vertex 39.98175327442567 99.39617753561782 2.1502244429427717e-14
    vertex 160.0 100.0 2.255973186038318e-14
  endloop
endfacet
facet normal -0.0 -0.0 1.0
  outer loop
    vertex 200.0 140.0 1.762479051592436e-15
    vertex 162.92893218813452 107.07106781186546 2.255973186038318e-14
    vertex 165.0 108.66025403784438 2.255973186038318e-14
  endloop
endfacet
facet normal -0.0 -0.0 1.0
  outer loop
    vertex 200.0 140.0 1.762479051592436e-15
    vertex 165.0 108.66025403784438 2.255973186038318e-14
    vertex 167.4118095489748 109.65925826289067 2.255973186038318e-14
  endloop
endfacet
facet normal -0.0 -0.0 1.0
  outer loop
    vertex 200.0 140.0 1.762479051592436e-15
    vertex 167.4118095489748 109.65925826289067 2.255973186038318e-14
    vertex 170.0 110.0 2.255973186038318e-14
  endloop
endfacet
facet normal -0.0 -0.0 1.0
  outer loop
    vertex 200.0 140.0 1.762479051592436e-15
    vertex 170.0 110.0 2.255973186038318e-14
    vertex 172.5881904510252 109.65925826289069 2.255973186038318e-14
  endloop
endfacet
facet normal -0.0 -0.0 1.0
  outer loop
    vertex 200.0 140.0 1.762479051592436e-15
    vertex 172.5881904510252 109.65925826289069 2.255973186038318e-14
    vertex 175.0 108.66025403784438 2.255973186038318e-14
  endloop
endfacet
facet normal -0.0 -0.0 1.0
  outer loop
    vertex 200.0 140.0 1.762479051592436e-15
    vertex 175.0 108.66025403784438 2.255973186038318e-14
    vertex 177.07106781186548 107.07106781186546 2.255973186038318e-14
  endloop
endfacet
facet normal -0.0 -0.0 1.0
  outer loop
    vertex 200.0 140.0 1.762479051592436e-15
    vertex 177.07106781186548 107.07106781186546 2.255973186038318e-14
    vertex 178.6602540378444 105.00000000000001 2.255973186038318e-14
  endloop
endfacet
facet normal -0.0 -0.0 1.0
  outer loop
    vertex 200.0 140.0 1.762479051592436e-15
    vertex 178.6602540378444 105.00000000000001 2.255973186038318e-14
    vertex 179.6592582628907 102.5881904510252 2.255973186038318e-14
  endloop
endfacet
facet normal -0.0 -0.0 1.0
  outer loop
    vertex 200.0 140.0 1.762479051592436e-15
    vertex 179.6592582628907 102.5881904510252 2.255973186038318e-14
    vertex 180.0 100.0 2.255973186038318e-14
  endloop
endfacet
facet normal -0.0 -0.0 1.0
  outer loop
    vertex 200.0 140.0 1.762479051592436e-15
    vertex 180.0 100.0 2.255973186038318e-14
    vertex 200.0 0.0 1.762479051592436e-15
  endloop
endfacet
facet normal 0.99144486137381 0.13052619222005557 0.0
  outer loop
    vertex 160.0 100.0 2.255973186038318e-14
    vertex 160.34074173710934 97.41180954897479 4.000000000000002
    vertex 160.34074173710934 97.41180954897479 2.255973186038318e-14
  endloop
endfacet
facet normal 0.99144486137381 0.13052619222005557 0.0
  outer loop
    vertex 160.34074173710934 97.41180954897479 4.000000000000002
    vertex 160.0 100.0 2.255973186038318e-14
    vertex 160.0 100.0 4.000000000000002
  endloop
endfacet
facet normal 0.9238795325112866 0.3826834323650902 0.0
  outer loop
    vertex 160.34074173710934 97.41180954897479 2.255973186038318e-14
    vertex 161.33974596215563 95.0 4.000000000000002
    vertex 161.33974596215563 95.0 2.255973186038318e-14
  endloop
endfacet
facet normal 0.9238795325112866 0.3826834323650902 0.0
  outer loop
    vertex 161.33974596215563 95.0 4.000000000000002
    vertex 160.34074173710934 97.41180954897479 2.255973186038318e-14
    vertex 160.34074173710934 97.41180954897479 4.000000000000002
  endloop
endfacet
facet normal 0.7933533402912359 0.6087614290087195 0.0
  outer loop
    vertex 161.33974596215563 95.0 2.255973186038318e-14
    vertex 162.92893218813452 92.92893218813451 4.000000000000002
    vertex 162.92893218813452 92.92893218813451 2.255973186038318e-14
  endloop
endfacet
facet normal 0.7933533402912359 0.6087614290087195 0.0
  outer loop
    vertex 162.92893218813452 92.92893218813451 4.000000000000002
    vertex 161.33974596215563 95.0 2.255973186038318e-14
    vertex 161.33974596215563 95.0 4.000000000000002
  endloop
endfacet
facet normal 0.6087614290087195 0.7933533402912359 0.0
  outer loop
    vertex 162.92893218813452 92.92893218813451 4.000000000000002
    vertex 165.0 91.3397459621556 2.255973186038318e-14
    vertex 162.92893218813452 92.92893218813451 2.255973186038318e-14
  endloop
endfacet
facet normal 0.6087614290087195 0.7933533402912359 0.0
  outer loop
    vertex 165.0 91.3397459621556 2.255973186038318e-14
    vertex 162.92893218813452 92.92893218813451 4.000000000000002
    vertex 165.0 91.3397459621556 4.000000000000002
  endloop
endfacet
facet normal 0.3826834323650902 0.9238795325112866 0.0
  outer loop
    vertex 165.0 91.3397459621556 4.000000000000002
    vertex 167.4118095489748 90.34074173710931 2.255973186038318e-14
    vertex 165.0 91.3397459621556 2.255973186038318e-14
  endloop
endfacet
facet normal 0.3826834323650902 0.9238795325112866 0.0
  outer loop
    vertex 167.4118095489748 90.34074173710931 2.255973186038318e-14
    vertex 165.0 91.3397459621556 4.000000000000002
    vertex 167.4118095489748 90.34074173710931 4.000000000000002
  endloop
endfacet
facet normal 0.13052619222005188 0.9914448613738104 0.0
  outer loop
    vertex 167.4118095489748 90.34074173710931 4.000000000000002
    vertex 170.0 90.0 2.255973186038318e-14
    vertex 167.4118095489748 90.34074173710931 2.255973186038318e-14
  endloop
endfacet
facet normal 0.13052619222005188 0.9914448613738104 0.0
  outer loop
    vertex 170.0 90.0 2.255973186038318e-14
    vertex 167.4118095489748 90.34074173710931 4.000000000000002
    vertex 170.0 90.0 4.000000000000002
  endloop
endfacet
facet normal -0.13052619222005188 0.9914448613738104 -0.0
  outer loop
    vertex 170.0 90.0 4.000000000000002
    vertex 172.5881904510252 90.34074173710931 2.255973186038318e-14
    vertex 170.0 90.0 2.255973186038318e-14
  endloop
endfacet
facet normal -0.13052619222005188 0.9914448613738104 -0.0
  outer loop
    vertex 172.5881904510252 90.34074173710931 2.255973186038318e-14
    vertex 170.0 90.0 4.000000000000002
    vertex 172.5881904510252 90.34074173710931 4.000000000000002
  endloop
endfacet
facet normal -0.3826834323650872 0.9238795325112878 -0.0
  outer loop
    vertex 172.5881904510252 90.34074173710931 4.000000000000002
    vertex 175.00000000000003 91.3397459621556 2.255973186038318e-14
    vertex 172.5881904510252 90.34074173710931 2.255973186038318e-14
  endloop
endfacet
facet normal -0.3826834323650872 0.9238795325112878 -0.0
  outer loop
    vertex 175.00000000000003 91.3397459621556 2.255973186038318e-14
    vertex 172.5881904510252 90.34074173710931 4.000000000000002
    vertex 175.00000000000003 91.3397459621556 4.000000000000002
  endloop
endfacet
facet normal -0.6087614290087238 0.793353340291233 -0.0
  outer loop
    vertex 175.00000000000003 91.3397459621556 4.000000000000002
    vertex 177.07106781186548 92.92893218813451 2.255973186038318e-14
    vertex 175.00000000000003 91.3397459621556 2.255973186038318e-14
  endloop
endfacet
facet normal -0.6087614290087238 0.793353340291233 -0.0
  outer loop
    vertex 177.07106781186548 92.92893218813451 2.255973186038318e-14
    vertex 175.00000000000003 91.3397459621556 4.000000000000002
    vertex 177.07106781186548 92.92893218813451 4.000000000000002
  endloop
endfacet
facet normal -0.7933533402912359 0.6087614290087195 -0.0
  outer loop
    vertex 178.6602540378444 95.0 4.000000000000002
    vertex 177.07106781186548 92.92893218813451 2.255973186038318e-14
    vertex 177.07106781186548 92.92893218813451 4.000000000000002
  endloop
endfacet
facet normal -0.7933533402912359 0.6087614290087195 -0.0
  outer loop
    vertex 177.07106781186548 92.92893218813451 2.255973186038318e-14
    vertex 178.6602540378444 95.0 4.000000000000002
    vertex 178.6602540378444 95.0 2.255973186038318e-14
  endloop
endfacet
facet normal -0.9238795325112842 0.3826834323650961 -0.0
  outer loop
    vertex 179.6592582628907 97.41180954897479 4.000000000000002
    vertex 178.6602540378444 95.0 2.255973186038318e-14
    vertex 178.6602540378444 95.0 4.000000000000002
  endloop
endfacet
facet normal -0.9238795325112842 0.3826834323650961 -0.0
  outer loop
    vertex 178.6602540378444 95.0 2.255973186038318e-14
    vertex 179.6592582628907 97.41180954897479 4.000000000000002
    vertex 179.6592582628907 97.41180954897479 2.255973186038318e-14
  endloop
endfacet
facet normal -0.9914448613738109 0.13052619222004763 -0.0
  outer loop
    vertex 180.0 100.0 4.000000000000002
    vertex 179.6592582628907 97.41180954897479 2.255973186038318e-14
    vertex 179.6592582628907 97.41180954897479 4.000000000000002
  endloop
endfacet
facet normal -0.9914448613738109 0.13052619222004763 -0.0
  outer loop
    vertex 179.6592582628907 97.41180954897479 2.255973186038318e-14
    vertex 180.0 100.0 4.000000000000002
    vertex 180.0 100.0 2.255973186038318e-14
  endloop
endfacet
facet normal -0.9914448613738109 -0.13052619222004763 -0.0
  outer loop
    vertex 179.6592582628907 102.5881904510252 4.000000000000002
    vertex 180.0 100.0 2.255973186038318e-14
    vertex 180.0 100.0 4.000000000000002
  endloop
endfacet
facet normal -0.9914448613738109 -0.13052619222004763 -0.0
  outer loop
    vertex 180.0 100.0 2.255973186038318e-14
    vertex 179.6592582628907 102.5881904510252 4.000000000000002
    vertex 179.6592582628907 102.5881904510252 2.255973186038318e-14
  endloop
endfacet
facet normal -0.9238795325112849 -0.3826834323650946 -0.0
  outer loop
    vertex 178.6602540378444 105.00000000000001 4.000000000000002
    vertex 179.6592582628907 102.5881904510252 2.255973186038318e-14
    vertex 179.6592582628907 102.5881904510252 4.000000000000002
  endloop
endfacet
facet normal -0.9238795325112849 -0.3826834323650946 -0.0
  outer loop
    vertex 179.6592582628907 102.5881904510252 2.255973186038318e-14
    vertex 178.6602540378444 105.00000000000001 4.000000000000002
    vertex 178.6602540378444 105.00000000000001 2.255973186038318e-14
  endloop
endfacet
facet normal -0.793353340291233 -0.6087614290087238 -0.0
  outer loop
    vertex 177.07106781186548 107.07106781186546 4.000000000000002
    vertex 178.6602540378444 105.00000000000001 2.255973186038318e-14
    vertex 178.6602540378444 105.00000000000001 4.000000000000002
  endloop
endfacet
facet normal -0.793353340291233 -0.6087614290087238 -0.0
  outer loop
    vertex 178.6602540378444 105.00000000000001 2.255973186038318e-14
    vertex 177.07106781186548 107.07106781186546 4.000000000000002
    vertex 177.07106781186548 107.07106781186546 2.255973186038318e-14
  endloop
endfacet
facet normal -0.6087614290087195 -0.7933533402912359 -0.0
  outer loop
    vertex 177.07106781186548 107.07106781186546 4.000000000000002
    vertex 175.0 108.66025403784438 2.255973186038318e-14
    vertex 177.07106781186548 107.07106781186546 2.255973186038318e-14
  endloop
endfacet
facet normal -0.6087614290087195 -0.7933533402912359 -0.0
  outer loop
    vertex 175.0 108.66025403784438 2.255973186038318e-14
    vertex 177.07106781186548 107.07106781186546 4.000000000000002
    vertex 175.0 108.66025403784438 4.000000000000002
  endloop
endfacet
facet normal -0.3826834323650976 -0.9238795325112836 -0.0
  outer loop
    vertex 175.0 108.66025403784438 4.000000000000002
    vertex 172.5881904510252 109.65925826289069 2.255973186038318e-14
    vertex 175.0 108.66025403784438 2.255973186038318e-14
  endloop
endfacet
facet normal -0.3826834323650976 -0.9238795325112836 -0.0
  outer loop
    vertex 172.5881904510252 109.65925826289069 2.255973186038318e-14
    vertex 175.0 108.66025403784438 4.000000000000002
    vertex 172.5881904510252 109.65925826289069 4.000000000000002
  endloop
endfacet
facet normal -0.13052619222004763 -0.9914448613738109 -0.0
  outer loop
    vertex 172.5881904510252 109.65925826289069 4.000000000000002
    vertex 170.0 110.0 2.255973186038318e-14
    vertex 172.5881904510252 109.65925826289069 2.255973186038318e-14
  endloop
endfacet
facet normal -0.13052619222004763 -0.9914448613738109 -0.0
  outer loop
    vertex 170.0 110.0 2.255973186038318e-14
    vertex 172.5881904510252 109.65925826289069 4.000000000000002
    vertex 170.0 110.0 4.000000000000002
  endloop
endfacet
facet normal 0.13052619222005502 -0.99144486137381 -0.0
  outer loop
    vertex 170.0 110.0 4.000000000000002
    vertex 167.4118095489748 109.65925826289067 2.255973186038318e-14
    vertex 170.0 110.0 2.255973186038318e-14
  endloop
endfacet
facet normal 0.13052619222005502 -0.99144486137381 -0.0
  outer loop
    vertex 167.4118095489748 109.65925826289067 2.255973186038318e-14
    vertex 170.0 110.0 4.000000000000002
    vertex 167.4118095489748 109.65925826289067 4.000000000000002
  endloop
endfacet
facet normal 0.3826834323650902 -0.9238795325112866 -0.0
  outer loop
    vertex 167.4118095489748 109.65925826289067 4.000000000000002
    vertex 165.0 108.66025403784438 2.255973186038318e-14
    vertex 167.4118095489748 109.65925826289067 2.255973186038318e-14
  endloop
endfacet
facet normal 0.3826834323650902 -0.9238795325112866 -0.0
  outer loop
    vertex 165.0 108.66025403784438 2.255973186038318e-14
    vertex 167.4118095489748 109.65925826289067 4.000000000000002
    vertex 165.0 108.66025403784438 4.000000000000002
  endloop
endfacet
facet normal 0.6087614290087238 -0.793353340291233 -0.0
  outer loop
    vertex 165.0 108.66025403784438 4.000000000000002
    vertex 162.92893218813452 107.07106781186546 2.255973186038318e-14
    vertex 165.0 108.66025403784438 2.255973186038318e-14
  endloop
endfacet
facet normal 0.6087614290087238 -0.793353340291233 -0.0
  outer loop
    vertex 162.92893218813452 107.07106781186546 2.255973186038318e-14
    vertex 165.0 108.66025403784438 4.000000000000002
    vertex 162.92893218813452 107.07106781186546 4.000000000000002
  endloop
endfacet
facet normal 0.7933533402912317 -0.608761429008725 -0.0
  outer loop
    vertex 162.92893218813452 107.07106781186546 2.255973186038318e-14
    vertex 161.3397459621556 104.99999999999999 4.000000000000002
    vertex 161.3397459621556 104.99999999999999 2.255973186038318e-14
  endloop
endfacet
facet normal 0.7933533402912317 -0.608761429008725 -0.0
  outer loop
    vertex 161.3397459621556 104.99999999999999 4.000000000000002
    vertex 162.92893218813452 107.07106781186546 2.255973186038318e-14
    vertex 162.92893218813452 107.07106781186546 4.000000000000002
  endloop
endfacet
facet normal 0.9238795325112866 -0.3826834323650902 -0.0
  outer loop
    vertex 161.3397459621556 104.99999999999999 2.255973186038318e-14
    vertex 160.3407417371093 102.5881904510252 4.000000000000002
    vertex 160.3407417371093 102.5881904510252 2.255973186038318e-14
  endloop
endfacet
facet normal 0.9238795325112866 -0.3826834323650902 -0.0
  outer loop
    vertex 160.3407417371093 102.5881904510252 4.000000000000002
    vertex 161.3397459621556 104.99999999999999 2.255973186038318e-14
    vertex 161.3397459621556 104.99999999999999 4.000000000000002
  endloop
endfacet
facet normal 0.9914448613738109 -0.13052619222004763 -0.0
  outer loop
    vertex 160.3407417371093 102.5881904510252 2.255973186038318e-14
    vertex 160.0 100.0 4.000000000000002
    vertex 160.0 100.0 2.255973186038318e-14
  endloop
endfacet
facet normal 0.9914448613738109 -0.13052619222004763 -0.0
  outer loop
    vertex 160.0 100.0 4.000000000000002
    vertex 160.3407417371093 102.5881904510252 2.255973186038318e-14
    vertex 160.3407417371093 102.5881904510252 4.000000000000002
  endloop
endfacet
facet normal 0.0 -1.0 0.0
  outer loop
    vertex 170.0 50.0 10.0
    vertex 169.82942068854265 50.0 2.8199664825478975e-15
    vertex 170.0 50.0 2.8199664825478975e-15
  endloop
endfacet
facet normal 0.0 -1.0 0.0
  outer loop
    vertex 169.82942068854265 50.0 2.8199664825478975e-15
    vertex 170.0 50.0 10.0
    vertex 169.82942068854265 50.0 10.0
  endloop
endfacet
facet normal 0.0 -1.0 0.0
  outer loop
    vertex 130.1705793114574 50.0 10.0
    vertex 130.0 50.0 2.8199664825478975e-15
    vertex 130.1705793114574 50.0 2.8199664825478975e-15
  endloop
endfacet
facet normal 0.0 -1.0 0.0
  outer loop
    vertex 130.0 50.0 2.8199664825478975e-15
    vertex 130.1705793114574 50.0 10.0
    vertex 130.0 50.0 10.0
  endloop
endfacet
facet normal -0.0 -0.0 1.0
  outer loop
    vertex 0.0 0.0 4.000000000000002
    vertex 21.053636857847785 95.53204895631784 4.000000000000002
    vertex 0.0 140.0 4.000000000000002
  endloop
endfacet
facet normal -0.0 -0.0 1.0
  outer loop
    vertex 21.053636857847785 95.53204895631784 4.000000000000002
    vertex 0.0 0.0 4.000000000000002
    vertex 22.51486761232518 93.36880153071998 4.000000000000002
  endloop
endfacet
facet normal -0.0 -0.0 1.0
  outer loop
    vertex 22.51486761232518 93.36880153071998 4.000000000000002
    vertex 0.0 0.0 4.000000000000002
    vertex 69.97887263861985 49.080952618300735 4.000000000000002
  endloop
endfacet
facet normal -0.0 -0.0 1.0
  outer loop
    vertex 69.97887263861985 49.080952618300735 4.000000000000002
    vertex 0.0 0.0 4.000000000000002
    vertex 200.0 0.0 4.000000000000002
  endloop
endfacet
facet normal -0.0 -0.0 1.0
  outer loop
    vertex 0.0 140.0 4.000000000000002
    vertex 21.053636857847785 95.53204895631784 4.000000000000002
    vertex 20.20208596694393 97.99977986190443 4.000000000000002
  endloop
endfacet
facet normal -0.0 -0.0 1.0
  outer loop
    vertex 0.0 140.0 4.000000000000002
    vertex 20.20208596694393 97.99977986190443 4.000000000000002
    vertex 20.01824672557433 100.60382246438216 4.000000000000002
  endloop
endfacet
facet normal -0.0 -0.0 1.0
  outer loop
    vertex 22.51486761232518 93.36880153071998 4.000000000000002
    vertex 69.97887263861985 49.080952618300735 4.000000000000002
    vertex 24.486197769256485 91.65745932222994 4.000000000000002
  endloop
endfacet
facet normal -0.0 -0.0 1.0
  outer loop
    vertex 24.486197769256485 91.65745932222994 4.000000000000002
    vertex 69.97887263861985 49.080952618300735 4.000000000000002
    vertex 26.83328443622394 90.5146474742296 4.000000000000002
  endloop
endfacet
facet normal -0.0 -0.0 1.0
  outer loop
    vertex 26.83328443622394 90.5146474742296 4.000000000000002
    vertex 69.97887263861985 49.080952618300735 4.000000000000002
    vertex 29.39617753561783 90.01824672557433 4.000000000000002
  endloop
endfacet
facet normal -0.0 -0.0 1.0
  outer loop
    vertex 29.39617753561783 90.01824672557433 4.000000000000002
    vertex 69.97887263861985 49.080952618300735 4.000000000000002
    vertex 32.000220138095564 90.20208596694393 4.000000000000002
  endloop
endfacet
facet normal -0.0 -0.0 1.0
  outer loop
    vertex 32.000220138095564 90.20208596694393 4.000000000000002
    vertex 69.97887263861985 49.080952618300735 4.000000000000002
    vertex 34.46795104368215 91.05363685784778 4.000000000000002
  endloop
endfacet
facet normal -0.0 -0.0 1.0
  outer loop
    vertex 34.46795104368215 91.05363685784778 4.000000000000002
    vertex 69.97887263861985 49.080952618300735 4.000000000000002
    vertex 36.631198469280015 92.51486761232518 4.000000000000002
  endloop
endfacet
facet normal -0.0 -0.0 1.0
  outer loop
    vertex 36.631198469280015 92.51486761232518 4.000000000000002
    vertex 69.97887263861985 49.080952618300735 4.000000000000002
    vertex 38.34254067777005 94.48619776925648 4.000000000000002
  endloop
endfacet
facet normal -0.0 -0.0 1.0
  outer loop
    vertex 38.34254067777005 94.48619776925648 4.000000000000002
    vertex 69.97887263861985 49.080952618300735 4.000000000000002
    vertex 39.48535252577039 96.83328443622395 4.000000000000002
  endloop
endfacet
facet normal -0.0 -0.0 1.0
  outer loop
    vertex 39.48535252577039 96.83328443622395 4.000000000000002
    vertex 69.97887263861985 49.080952618300735 4.000000000000002
    vertex 39.98175327442567 99.39617753561782 4.000000000000002
  endloop
endfacet
facet normal -0.0 -0.0 1.0
  outer loop
    vertex 39.98175327442567 99.39617753561782 4.000000000000002
    vertex 69.97887263861985 49.080952618300735 4.000000000000002
    vertex 69.9006286765689 50.0 4.000000000000002
  endloop
endfacet
facet normal -0.0 -0.0 1.0
  outer loop
    vertex 69.97887263861985 49.080952618300735 4.000000000000002
    vertex 200.0 0.0 4.000000000000002
    vertex 70.0 50.0 4.000000000000002
  endloop
endfacet
facet normal -0.0 -0.0 1.0
  outer loop
    vertex 70.0 50.0 4.000000000000002
    vertex 200.0 0.0 4.000000000000002
    vertex 90.0 60.0 4.000000000000002
  endloop
endfacet
facet normal -0.0 -0.0 1.0
  outer loop
    vertex 90.0 60.0 4.000000000000002
    vertex 200.0 0.0 4.000000000000002
    vertex 110.0 60.0 4.000000000000002
  endloop
endfacet
facet normal -0.0 -0.0 1.0
  outer loop
    vertex 110.0 60.0 4.000000000000002
    vertex 200.0 0.0 4.000000000000002
    vertex 110.0 70.0 4.000000000000002
  endloop
endfacet
facet normal -0.0 -0.0 1.0
  outer loop
    vertex 110.0 70.0 4.000000000000002
    vertex 200.0 0.0 4.000000000000002
    vertex 160.34074173710934 97.41180954897479 4.000000000000002
  endloop
endfacet
facet normal -0.0 -0.0 1.0
  outer loop
    vertex 110.0 70.0 4.000000000000002
    vertex 160.34074173710934 97.41180954897479 4.000000000000002
    vertex 160.0 100.0 4.000000000000002
  endloop
endfacet
facet normal -0.0 -0.0 1.0
  outer loop
    vertex 160.34074173710934 97.41180954897479 4.000000000000002
    vertex 200.0 0.0 4.000000000000002
    vertex 161.33974596215563 95.0 4.000000000000002
  endloop
endfacet
facet normal -0.0 -0.0 1.0
  outer loop
    vertex 161.33974596215563 95.0 4.000000000000002
    vertex 200.0 0.0 4.000000000000002
    vertex 162.92893218813452 92.92893218813451 4.000000000000002
  endloop
endfacet
facet normal -0.0 -0.0 1.0
  outer loop
    vertex 162.92893218813452 92.92893218813451 4.000000000000002
    vertex 200.0 0.0 4.000000000000002
    vertex 165.0 91.3397459621556 4.000000000000002
  endloop
endfacet
facet normal -0.0 -0.0 1.0
  outer loop
    vertex 165.0 91.3397459621556 4.000000000000002
    vertex 200.0 0.0 4.000000000000002
    vertex 167.4118095489748 90.34074173710931 4.000000000000002
  endloop
endfacet
facet normal -0.0 -0.0 1.0
  outer loop
    vertex 167.4118095489748 90.34074173710931 4.000000000000002
    vertex 200.0 0.0 4.000000000000002
    vertex 170.0 90.0 4.000000000000002
  endloop
endfacet
facet normal -0.0 -0.0 1.0
  outer loop
    vertex 170.0 90.0 4.000000000000002
    vertex 200.0 0.0 4.000000000000002
    vertex 172.5881904510252 90.34074173710931 4.000000000000002
  endloop
endfacet
facet normal -0.0 -0.0 1.0
  outer loop
    vertex 172.5881904510252 90.34074173710931 4.000000000000002
    vertex 200.0 0.0 4.000000000000002
    vertex 175.00000000000003 91.3397459621556 4.000000000000002
  endloop
endfacet
facet normal -0.0 -0.0 1.0
  outer loop
    vertex 175.00000000000003 91.3397459621556 4.000000000000002
    vertex 200.0 0.0 4.000000000000002
    vertex 177.07106781186548 92.92893218813451 4.000000000000002
  endloop
endfacet
facet normal -0.0 -0.0 1.0
  outer loop
    vertex 177.07106781186548 92.92893218813451 4.000000000000002
    vertex 200.0 0.0 4.000000000000002
    vertex 178.6602540378444 95.0 4.000000000000002
  endloop
endfacet
facet normal -0.0 -0.0 1.0
  outer loop
    vertex 178.6602540378444 95.0 4.000000000000002
    vertex 200.0 0.0 4.000000000000002
    vertex 179.6592582628907 97.41180954897479 4.000000000000002
  endloop
endfacet
facet normal -0.0 -0.0 1.0
  outer loop
    vertex 179.6592582628907 97.41180954897479 4.000000000000002
    vertex 200.0 0.0 4.000000000000002
    vertex 180.0 100.0 4.000000000000002
  endloop
endfacet
facet normal -0.0 -0.0 1.0
  outer loop
    vertex 0.0 140.0 4.000000000000002
    vertex 27.999779861904432 109.79791403305607 4.000000000000002
    vertex 200.0 140.0 4.000000000000002
  endloop
endfacet
facet normal -0.0 -0.0 1.0
  outer loop
    vertex 27.999779861904432 109.79791403305607 4.000000000000002
    vertex 0.0 140.0 4.000000000000002
    vertex 25.532048956317848 108.94636314215222 4.000000000000002
  endloop
endfacet
facet normal -0.0 -0.0 1.0
  outer loop
    vertex 25.532048956317848 108.94636314215222 4.000000000000002
    vertex 0.0 140.0 4.000000000000002
    vertex 23.368801530719985 107.48513238767481 4.000000000000002
  endloop
endfacet
facet normal -0.0 -0.0 1.0
  outer loop
    vertex 23.368801530719985 107.48513238767481 4.000000000000002
    vertex 0.0 140.0 4.000000000000002
    vertex 21.65745932222995 105.5138022307435 4.000000000000002
  endloop
endfacet
facet normal -0.0 -0.0 1.0
  outer loop
    vertex 21.65745932222995 105.5138022307435 4.000000000000002
    vertex 0.0 140.0 4.000000000000002
    vertex 20.514647474229616 103.16671556377605 4.000000000000002
  endloop
endfacet
facet normal -0.0 -0.0 1.0
  outer loop
    vertex 20.514647474229616 103.16671556377605 4.000000000000002
    vertex 0.0 140.0 4.000000000000002
    vertex 20.01824672557433 100.60382246438216 4.000000000000002
  endloop
endfacet
facet normal -0.0 -0.0 1.0
  outer loop
    vertex 200.0 140.0 4.000000000000002
    vertex 27.999779861904432 109.79791403305607 4.000000000000002
    vertex 30.603822464382166 109.98175327442567 4.000000000000002
  endloop
endfacet
facet normal -0.0 -0.0 1.0
  outer loop
    vertex 200.0 140.0 4.000000000000002
    vertex 30.603822464382166 109.98175327442567 4.000000000000002
    vertex 33.16671556377606 109.4853525257704 4.000000000000002
  endloop
endfacet
facet normal -0.0 -0.0 1.0
  outer loop
    vertex 200.0 140.0 4.000000000000002
    vertex 33.16671556377606 109.4853525257704 4.000000000000002
    vertex 35.513802230743515 108.34254067777005 4.000000000000002
  endloop
endfacet
facet normal -0.0 -0.0 1.0
  outer loop
    vertex 200.0 140.0 4.000000000000002
    vertex 35.513802230743515 108.34254067777005 4.000000000000002
    vertex 37.48513238767482 106.63119846928001 4.000000000000002
  endloop
endfacet
facet normal -0.0 -0.0 1.0
  outer loop
    vertex 200.0 140.0 4.000000000000002
    vertex 37.48513238767482 106.63119846928001 4.000000000000002
    vertex 38.94636314215222 104.46795104368215 4.000000000000002
  endloop
endfacet
facet normal -0.0 -0.0 1.0
  outer loop
    vertex 200.0 140.0 4.000000000000002
    vertex 38.94636314215222 104.46795104368215 4.000000000000002
    vertex 39.797914033056074 102.00022013809556 4.000000000000002
  endloop
endfacet
facet normal -0.0 -0.0 1.0
  outer loop
    vertex 200.0 140.0 4.000000000000002
    vertex 39.797914033056074 102.00022013809556 4.000000000000002
    vertex 39.98175327442567 99.39617753561782 4.000000000000002
  endloop
endfacet
facet normal -0.0 -0.0 1.0
  outer loop
    vertex 200.0 140.0 4.000000000000002
    vertex 39.98175327442567 99.39617753561782 4.000000000000002
    vertex 90.0 70.0 4.000000000000002
  endloop
endfacet
facet normal -0.0 -0.0 1.0
  outer loop
    vertex 90.0 70.0 4.000000000000002
    vertex 39.98175327442567 99.39617753561782 4.000000000000002
    vertex 69.9006286765689 50.0 4.000000000000002
  endloop
endfacet
facet normal -0.0 -0.0 1.0
  outer loop
    vertex 90.0 70.0 4.000000000000002
    vertex 69.9006286765689 50.0 4.000000000000002
    vertex 70.0 50.0 4.000000000000002
  endloop
endfacet
facet normal -0.0 -0.0 1.0
  outer loop
    vertex 90.0 70.0 4.000000000000002
    vertex 70.0 50.0 4.000000000000002
    vertex 90.0 60.0 4.000000000000002
  endloop
endfacet
facet normal -0.0 -0.0 1.0
  outer loop
    vertex 200.0 140.0 4.000000000000002
    vertex 90.0 70.0 4.000000000000002
    vertex 110.0 70.0 4.000000000000002
  endloop
endfacet
facet normal -0.0 -0.0 1.0
  outer loop
    vertex 200.0 140.0 4.000000000000002
    vertex 110.0 70.0 4.000000000000002
    vertex 162.92893218813452 107.07106781186546 4.000000000000002
  endloop
endfacet
facet normal -0.0 -0.0 1.0
  outer loop
    vertex 162.92893218813452 107.07106781186546 4.000000000000002
    vertex 110.0 70.0 4.000000000000002
    vertex 161.3397459621556 104.99999999999999 4.000000000000002
  endloop
endfacet
facet normal -0.0 -0.0 1.0
  outer loop
    vertex 161.3397459621556 104.99999999999999 4.000000000000002
    vertex 110.0 70.0 4.000000000000002
    vertex 160.3407417371093 102.5881904510252 4.000000000000002
  endloop
endfacet
facet normal -0.0 -0.0 1.0
  outer loop
    vertex 160.3407417371093 102.5881904510252 4.000000000000002
    vertex 110.0 70.0 4.000000000000002
    vertex 160.0 100.0 4.000000000000002
  endloop
endfacet
facet normal -0.0 -0.0 1.0
  outer loop
    vertex 200.0 140.0 4.000000000000002
    vertex 162.92893218813452 107.07106781186546 4.000000000000002
    vertex 165.0 108.66025403784438 4.000000000000002
  endloop
endfacet
facet normal -0.0 -0.0 1.0
  outer loop
    vertex 200.0 140.0 4.000000000000002
    vertex 165.0 108.66025403784438 4.000000000000002
    vertex 167.4118095489748 109.65925826289067 4.000000000000002
  endloop
endfacet
facet normal -0.0 -0.0 1.0
  outer loop
    vertex 200.0 140.0 4.000000000000002
    vertex 167.4118095489748 109.65925826289067 4.000000000000002
    vertex 170.0 110.0 4.000000000000002
  endloop
endfacet
facet normal -0.0 -0.0 1.0
  outer loop
    vertex 200.0 140.0 4.000000000000002
    vertex 170.0 110.0 4.000000000000002
    vertex 172.5881904510252 109.65925826289069 4.000000000000002
  endloop
endfacet
facet normal -0.0 -0.0 1.0
  outer loop
    vertex 200.0 140.0 4.000000000000002
    vertex 172.5881904510252 109.65925826289069 4.000000000000002
    vertex 175.0 108.66025403784438 4.000000000000002
  endloop
endfacet
facet normal -0.0 -0.0 1.0
  outer loop
    vertex 200.0 140.0 4.000000000000002
    vertex 175.0 108.66025403784438 4.000000000000002
    vertex 177.07106781186548 107.07106781186546 4.000000000000002
  endloop
endfacet
facet normal -0.0 -0.0 1.0
  outer loop
    vertex 200.0 140.0 4.000000000000002
    vertex 177.07106781186548 107.07106781186546 4.000000000000002
    vertex 178.6602540378444 105.00000000000001 4.000000000000002
  endloop
endfacet
facet normal -0.0 -0.0 1.0
  outer loop
    vertex 200.0 140.0 4.000000000000002
    vertex 178.6602540378444 105.00000000000001 4.000000000000002
    vertex 179.6592582628907 102.5881904510252 4.000000000000002
  endloop
endfacet
facet normal -0.0 -0.0 1.0
  outer loop
    vertex 200.0 140.0 4.000000000000002
    vertex 179.6592582628907 102.5881904510252 4.000000000000002
    vertex 180.0 100.0 4.000000000000002
  endloop
endfacet
facet normal -0.0 -0.0 1.0
  outer loop
    vertex 200.0 140.0 4.000000000000002
    vertex 180.0 100.0 4.000000000000002
    vertex 200.0 0.0 4.000000000000002
  endloop
endfacet
facet normal 0.9997358731012388 -0.02298225477414707 3.0002517067312554e-19
  outer loop
    vertex 70.0 50.0 4.000000000000002
    vertex 69.97887263861985 49.080952618300735 10.0
    vertex 69.97887263861985 49.080952618300735 4.000000000000002
  endloop
endfacet
facet normal 0.9997358731012388 -0.02298225477414707 3.0002517067312554e-19
  outer loop
    vertex 69.97887263861985 49.080952618300735 10.0
    vertex 70.0 50.0 4.000000000000002
    vertex 70.0 50.0 10.0
  endloop
endfacet
facet normal -0.9963955184402232 -0.0848290683211763 6.592951700359975e-19
  outer loop
    vertex 69.9006286765689 50.0 10.0
    vertex 69.97887263861985 49.080952618300735 4.000000000000002
    vertex 69.97887263861985 49.080952618300735 10.0
  endloop
endfacet
facet normal -0.9963955184402232 -0.0848290683211763 6.592951700359975e-19
  outer loop
    vertex 69.97887263861985 49.080952618300735 4.000000000000002
    vertex 69.9006286765689 50.0 10.0
    vertex 69.9006286765689 50.0 4.000000000000002
  endloop
endfacet
facet normal -0.0 1.0 -0.0
  outer loop
    vertex 69.9006286765689 50.0 10.0
    vertex 70.0 50.0 4.000000000000002
    vertex 69.9006286765689 50.0 4.000000000000002
  endloop
endfacet
facet normal -0.0 1.0 -0.0
  outer loop
    vertex 70.0 50.0 4.000000000000002
    vertex 69.9006286765689 50.0 10.0
    vertex 70.0 50.0 10.0
  endloop
endfacet
endsolid front_back
