solid table
facet normal 0.0 0.0 -1.0
  outer loop
    vertex 0.0 122.0 0.0
    vertex 21.28278324528758 88.67879380230131 7.049916206369744e-16
    vertex 0.0 0.0 0.0
  endloop
endfacet
facet normal 0.0 0.0 -1.0
  outer loop
    vertex 21.28278324528758 88.67879380230131 7.049916206369744e-16
    vertex 0.0 122.0 0.0
    vertex 23.71474602532056 94.4597864260368 7.049916206369744e-16
  endloop
endfacet
facet normal 0.0 0.0 -1.0
  outer loop
    vertex 23.71474602532056 94.4597864260368 7.049916206369744e-16
    vertex 0.0 122.0 0.0
    vertex 27.29550053468958 99.60881699720098 7.049916206369744e-16
  endloop
endfacet
facet normal 0.0 0.0 -1.0
  outer loop
    vertex 27.29550053468958 99.60881699720098 7.049916206369744e-16
    vertex 0.0 122.0 0.0
    vertex 31.868550618968733 103.90084817204402 7.049916206369744e-16
  endloop
endfacet
facet normal 0.0 0.0 -1.0
  outer loop
    vertex 31.868550618968733 103.90084817204402 7.049916206369744e-16
    vertex 0.0 122.0 0.0
    vertex 37.23403204554606 107.14829759277464 7.049916206369744e-16
  endloop
endfacet
facet normal 0.0 0.0 -1.0
  outer loop
    vertex 37.23403204554606 107.14829759277464 7.049916206369744e-16
    vertex 0.0 122.0 0.0
    vertex 43.157447529643726 109.20923613671572 7.049916206369744e-16
  endloop
endfacet
facet normal 0.0 0.0 -1.0
  outer loop
    vertex 43.157447529643726 109.20923613671572 7.049916206369744e-16
    vertex 0.0 122.0 0.0
    vertex 100.0 122.0 0.0
  endloop
endfacet
facet normal 0.0 0.0 -1.0
  outer loop
    vertex 0.0 0.0 0.0
    vertex 21.28278324528758 88.67879380230131 7.049916206369744e-16
    vertex 20.105900637930237 82.5184962439321 7.049916206369744e-16
  endloop
endfacet
facet normal 0.0 0.0 -1.0
  outer loop
    vertex 43.157447529643726 109.20923613671572 7.049916206369744e-16
    vertex 100.0 122.0 0.0
    vertex 49.3799153909056 109.99359090001667 7.049916206369744e-16
  endloop
endfacet
facet normal 0.0 0.0 -1.0
  outer loop
    vertex 49.3799153909056 109.99359090001667 7.049916206369744e-16
    vertex 100.0 122.0 0.0
    vertex 55.629483925081 109.46708181576949 7.049916206369744e-16
  endloop
endfacet
facet normal 0.0 0.0 -1.0
  outer loop
    vertex 55.629483925081 109.46708181576949 7.049916206369744e-16
    vertex 100.0 122.0 0.0
    vertex 61.6330169984694 107.65271985742669 7.049916206369744e-16
  endloop
endfacet
facet normal 0.0 0.0 -1.0
  outer loop
    vertex 61.6330169984694 107.65271985742669 7.049916206369744e-16
    vertex 100.0 122.0 0.0
    vertex 67.12813140761584 104.62980134884246 7.049916206369744e-16
  endloop
endfacet
facet normal 0.0 0.0 -1.0
  outer loop
    vertex 67.12813140761584 104.62980134884246 7.049916206369744e-16
    vertex 100.0 122.0 0.0
    vertex 71.87466428435613 100.53044233441436 7.049916206369744e-16
  endloop
endfacet
facet normal 0.0 0.0 -1.0
  outer loop
    vertex 71.87466428435613 100.53044233441436 7.049916206369744e-16
    vertex 100.0 122.0 0.0
    vertex 75.66516936558502 95.53380447397981 7.049916206369744e-16
  endloop
endfacet
facet normal 0.0 0.0 -1.0
  outer loop
    vertex 75.66516936558502 95.53380447397981 7.049916206369744e-16
    vertex 100.0 122.0 0.0
    vertex 78.33398339039137 89.85826481856847 7.049916206369744e-16
  endloop
endfacet
facet normal 0.0 0.0 -1.0
  outer loop
    vertex 78.33398339039137 89.85826481856847 7.049916206369744e-16
    vertex 100.0 122.0 0.0
    vertex 79.76446637950062 83.75187168538265 7.049916206369744e-16
  endloop
endfacet
facet normal 0.0 0.0 -1.0
  outer loop
    vertex 79.76446637950062 83.75187168538265 7.049916206369744e-16
    vertex 100.0 122.0 0.0
    vertex 79.89409936206975 77.48150375606782 7.049916206369744e-16
  endloop
endfacet
facet normal 0.0 0.0 -1.0
  outer loop
    vertex 0.0 0.0 0.0
    vertex 32.87186859238419 55.37019865115746 7.049916206369744e-16
    vertex 100.0 0.0 0.0
  endloop
endfacet
facet normal 0.0 0.0 -1.0
  outer loop
    vertex 32.87186859238419 55.37019865115746 7.049916206369744e-16
    vertex 0.0 0.0 0.0
    vertex 28.125335715643878 59.46955766558558 7.049916206369744e-16
  endloop
endfacet
facet normal 0.0 0.0 -1.0
  outer loop
    vertex 28.125335715643878 59.46955766558558 7.049916206369744e-16
    vertex 0.0 0.0 0.0
    vertex 24.334830634414992 64.46619552602012 7.049916206369744e-16
  endloop
endfacet
facet normal 0.0 0.0 -1.0
  outer loop
    vertex 24.334830634414992 64.46619552602012 7.049916206369744e-16
    vertex 0.0 0.0 0.0
    vertex 21.666016609608626 70.14173518143147 7.049916206369744e-16
  endloop
endfacet
facet normal 0.0 0.0 -1.0
  outer loop
    vertex 21.666016609608626 70.14173518143147 7.049916206369744e-16
    vertex 0.0 0.0 0.0
    vertex 20.235533620499368 76.24812831461725 7.049916206369744e-16
  endloop
endfacet
facet normal 0.0 0.0 -1.0
  outer loop
    vertex 20.235533620499368 76.24812831461725 7.049916206369744e-16
    vertex 0.0 0.0 0.0
    vertex 20.105900637930237 82.5184962439321 7.049916206369744e-16
  endloop
endfacet
facet normal 0.0 0.0 -1.0
  outer loop
    vertex 100.0 0.0 0.0
    vertex 32.87186859238419 55.37019865115746 7.049916206369744e-16
    vertex 38.36698300153063 52.34728014257324 7.049916206369744e-16
  endloop
endfacet
facet normal 0.0 0.0 -1.0
  outer loop
    vertex 100.0 0.0 0.0
    vertex 38.36698300153063 52.34728014257324 7.049916206369744e-16
    vertex 44.370516074919024 50.53291818423046 7.049916206369744e-16
  endloop
endfacet
facet normal 0.0 0.0 -1.0
  outer loop
    vertex 100.0 0.0 0.0
    vertex 44.370516074919024 50.53291818423046 7.049916206369744e-16
    vertex 50.6200846090944 50.00640909998328 7.049916206369744e-16
  endloop
endfacet
facet normal 0.0 0.0 -1.0
  outer loop
    vertex 100.0 0.0 0.0
    vertex 50.6200846090944 50.00640909998328 7.049916206369744e-16
    vertex 56.84255247035627 50.79076386328423 7.049916206369744e-16
  endloop
endfacet
facet normal 0.0 0.0 -1.0
  outer loop
    vertex 100.0 0.0 0.0
    vertex 56.84255247035627 50.79076386328423 7.049916206369744e-16
    vertex 62.765967954453934 52.8517024072253 7.049916206369744e-16
  endloop
endfacet
facet normal 0.0 0.0 -1.0
  outer loop
    vertex 100.0 0.0 0.0
    vertex 62.765967954453934 52.8517024072253 7.049916206369744e-16
    vertex 68.13144938103126 56.09915182795593 7.049916206369744e-16
  endloop
endfacet
facet normal 0.0 0.0 -1.0
  outer loop
    vertex 100.0 0.0 0.0
    vertex 68.13144938103126 56.09915182795593 7.049916206369744e-16
    vertex 72.7044994653104 60.39118300279896 7.049916206369744e-16
  endloop
endfacet
facet normal 0.0 0.0 -1.0
  outer loop
    vertex 100.0 0.0 0.0
    vertex 72.7044994653104 60.39118300279896 7.049916206369744e-16
    vertex 76.28525397467942 65.54021357396313 7.049916206369744e-16
  endloop
endfacet
facet normal 0.0 0.0 -1.0
  outer loop
    vertex 100.0 0.0 0.0
    vertex 76.28525397467942 65.54021357396313 7.049916206369744e-16
    vertex 78.71721675471241 71.32120619769861 7.049916206369744e-16
  endloop
endfacet
facet normal 0.0 0.0 -1.0
  outer loop
    vertex 100.0 0.0 0.0
    vertex 78.71721675471241 71.32120619769861 7.049916206369744e-16
    vertex 79.89409936206975 77.48150375606782 7.049916206369744e-16
  endloop
endfacet
facet normal 0.0 0.0 -1.0
  outer loop
    vertex 100.0 0.0 0.0
    vertex 79.89409936206975 77.48150375606782 7.049916206369744e-16
    vertex 100.0 122.0 0.0
  endloop
endfacet
facet normal -0.0 -0.0 1.0
  outer loop
    vertex 0.0 0.0 5.000000000000001
    vertex 21.666016609608626 70.14173518143147 5.000000000000001
    vertex 0.0 122.0 5.000000000000001
  endloop
endfacet
facet normal -0.0 -0.0 1.0
  outer loop
    vertex 21.666016609608626 70.14173518143147 5.000000000000001
    vertex 0.0 0.0 5.000000000000001
    vertex 24.334830634414992 64.46619552602012 5.000000000000001
  endloop
endfacet
facet normal -0.0 -0.0 1.0
  outer loop
    vertex 24.334830634414992 64.46619552602012 5.000000000000001
    vertex 0.0 0.0 5.000000000000001
    vertex 28.125335715643878 59.46955766558558 5.000000000000001
  endloop
endfacet
facet normal -0.0 -0.0 1.0
  outer loop
    vertex 28.125335715643878 59.46955766558558 5.000000000000001
    vertex 0.0 0.0 5.000000000000001
    vertex 32.87186859238419 55.37019865115746 5.000000000000001
  endloop
endfacet
facet normal -0.0 -0.0 1.0
  outer loop
    vertex 32.87186859238419 55.37019865115746 5.000000000000001
    vertex 0.0 0.0 5.000000000000001
    vertex 100.0 0.0 5.000000000000001
  endloop
endfacet
facet normal -0.0 -0.0 1.0
  outer loop
    vertex 0.0 122.0 5.000000000000001
    vertex 21.666016609608626 70.14173518143147 5.000000000000001
    vertex 20.235533620499368 76.24812831461725 5.000000000000001
  endloop
endfacet
facet normal -0.0 -0.0 1.0
  outer loop
    vertex 0.0 122.0 5.000000000000001
    vertex 20.235533620499368 76.24812831461725 5.000000000000001
    vertex 20.105900637930237 82.5184962439321 5.000000000000001
  endloop
endfacet
facet normal -0.0 -0.0 1.0
  outer loop
    vertex 32.87186859238419 55.37019865115746 5.000000000000001
    vertex 100.0 0.0 5.000000000000001
    vertex 38.36698300153063 52.34728014257324 5.000000000000001
  endloop
endfacet
facet normal -0.0 -0.0 1.0
  outer loop
    vertex 38.36698300153063 52.34728014257324 5.000000000000001
    vertex 100.0 0.0 5.000000000000001
    vertex 44.370516074919024 50.53291818423046 5.000000000000001
  endloop
endfacet
facet normal -0.0 -0.0 1.0
  outer loop
    vertex 44.370516074919024 50.53291818423046 5.000000000000001
    vertex 100.0 0.0 5.000000000000001
    vertex 50.6200846090944 50.00640909998328 5.000000000000001
  endloop
endfacet
facet normal -0.0 -0.0 1.0
  outer loop
    vertex 50.6200846090944 50.00640909998328 5.000000000000001
    vertex 100.0 0.0 5.000000000000001
    vertex 56.84255247035627 50.79076386328423 5.000000000000001
  endloop
endfacet
facet normal -0.0 -0.0 1.0
  outer loop
    vertex 56.84255247035627 50.79076386328423 5.000000000000001
    vertex 100.0 0.0 5.000000000000001
    vertex 62.765967954453934 52.8517024072253 5.000000000000001
  endloop
endfacet
facet normal -0.0 -0.0 1.0
  outer loop
    vertex 62.765967954453934 52.8517024072253 5.000000000000001
    vertex 100.0 0.0 5.000000000000001
    vertex 68.13144938103126 56.09915182795593 5.000000000000001
  endloop
endfacet
facet normal -0.0 -0.0 1.0
  outer loop
    vertex 68.13144938103126 56.09915182795593 5.000000000000001
    vertex 100.0 0.0 5.000000000000001
    vertex 72.7044994653104 60.39118300279896 5.000000000000001
  endloop
endfacet
facet normal -0.0 -0.0 1.0
  outer loop
    vertex 72.7044994653104 60.39118300279896 5.000000000000001
    vertex 100.0 0.0 5.000000000000001
    vertex 76.28525397467942 65.54021357396313 5.000000000000001
  endloop
endfacet
facet normal -0.0 -0.0 1.0
  outer loop
    vertex 76.28525397467942 65.54021357396313 5.000000000000001
    vertex 100.0 0.0 5.000000000000001
    vertex 78.71721675471241 71.32120619769861 5.000000000000001
  endloop
endfacet
facet normal -0.0 -0.0 1.0
  outer loop
    vertex 78.71721675471241 71.32120619769861 5.000000000000001
    vertex 100.0 0.0 5.000000000000001
    vertex 79.89409936206975 77.48150375606782 5.000000000000001
  endloop
endfacet
facet normal -0.0 -0.0 1.0
  outer loop
    vertex 0.0 122.0 5.000000000000001
    vertex 43.157447529643726 109.20923613671572 5.000000000000001
    vertex 100.0 122.0 5.000000000000001
  endloop
endfacet
facet normal -0.0 -0.0 1.0
  outer loop
    vertex 43.157447529643726 109.20923613671572 5.000000000000001
    vertex 0.0 122.0 5.000000000000001
    vertex 37.23403204554606 107.14829759277464 5.000000000000001
  endloop
endfacet
facet normal -0.0 -0.0 1.0
  outer loop
    vertex 37.23403204554606 107.14829759277464 5.000000000000001
    vertex 0.0 122.0 5.000000000000001
    vertex 31.868550618968733 103.90084817204402 5.000000000000001
  endloop
endfacet
facet normal -0.0 -0.0 1.0
  outer loop
    vertex 31.868550618968733 103.90084817204402 5.000000000000001
    vertex 0.0 122.0 5.000000000000001
    vertex 27.29550053468958 99.60881699720098 5.000000000000001
  endloop
endfacet
facet normal -0.0 -0.0 1.0
  outer loop
    vertex 27.29550053468958 99.60881699720098 5.000000000000001
    vertex 0.0 122.0 5.000000000000001
    vertex 23.71474602532056 94.4597864260368 5.000000000000001
  endloop
endfacet
facet normal -0.0 -0.0 1.0
  outer loop
    vertex 23.71474602532056 94.4597864260368 5.000000000000001
    vertex 0.0 122.0 5.000000000000001
    vertex 21.28278324528758 88.67879380230131 5.000000000000001
  endloop
endfacet
facet normal -0.0 -0.0 1.0
  outer loop
    vertex 21.28278324528758 88.67879380230131 5.000000000000001
    vertex 0.0 122.0 5.000000000000001
    vertex 20.105900637930237 82.5184962439321 5.000000000000001
  endloop
endfacet
facet normal -0.0 -0.0 1.0
  outer loop
    vertex 100.0 122.0 5.000000000000001
    vertex 43.157447529643726 109.20923613671572 5.000000000000001
    vertex 49.3799153909056 109.99359090001667 5.000000000000001
  endloop
endfacet
facet normal -0.0 -0.0 1.0
  outer loop
    vertex 100.0 122.0 5.000000000000001
    vertex 49.3799153909056 109.99359090001667 5.000000000000001
    vertex 55.629483925081 109.46708181576949 5.000000000000001
  endloop
endfacet
facet normal -0.0 -0.0 1.0
  outer loop
    vertex 100.0 122.0 5.000000000000001
    vertex 55.629483925081 109.46708181576949 5.000000000000001
    vertex 61.6330169984694 107.65271985742669 5.000000000000001
  endloop
endfacet
facet normal -0.0 -0.0 1.0
  outer loop
    vertex 100.0 122.0 5.000000000000001
    vertex 61.6330169984694 107.65271985742669 5.000000000000001
    vertex 67.12813140761584 104.62980134884246 5.000000000000001
  endloop
endfacet
facet normal -0.0 -0.0 1.0
  outer loop
    vertex 100.0 122.0 5.000000000000001
    vertex 67.12813140761584 104.62980134884246 5.000000000000001
    vertex 71.87466428435613 100.53044233441436 5.000000000000001
  endloop
endfacet
facet normal -0.0 -0.0 1.0
  outer loop
    vertex 100.0 122.0 5.000000000000001
    vertex 71.87466428435613 100.53044233441436 5.000000000000001
    vertex 75.66516936558502 95.53380447397981 5.000000000000001
  endloop
endfacet
facet normal -0.0 -0.0 1.0
  outer loop
    vertex 100.0 122.0 5.000000000000001
    vertex 75.66516936558502 95.53380447397981 5.000000000000001
    vertex 78.33398339039137 89.85826481856847 5.000000000000001
  endloop
endfacet
facet normal -0.0 -0.0 1.0
  outer loop
    vertex 100.0 122.0 5.000000000000001
    vertex 78.33398339039137 89.85826481856847 5.000000000000001
    vertex 79.76446637950062 83.75187168538265 5.000000000000001
  endloop
endfacet
facet normal -0.0 -0.0 1.0
  outer loop
    vertex 100.0 122.0 5.000000000000001
    vertex 79.76446637950062 83.75187168538265 5.000000000000001
    vertex 79.89409936206975 77.48150375606782 5.000000000000001
  endloop
endfacet
facet normal -0.0 -0.0 1.0
  outer loop
    vertex 100.0 122.0 5.000000000000001
    vertex 79.89409936206975 77.48150375606782 5.000000000000001
    vertex 100.0 0.0 5.000000000000001
  endloop
endfacet
facet normal 1.0 0.0 0.0
  outer loop
    vertex 100.0 122.0 0.0
    vertex 100.0 0.0 5.000000000000001
    vertex 100.0 0.0 0.0
  endloop
endfacet
facet normal 1.0 0.0 0.0
  outer loop
    vertex 100.0 0.0 5.000000000000001
    vertex 100.0 122.0 0.0
    vertex 100.0 122.0 5.000000000000001
  endloop
endfacet
facet normal -0.0 -1.0 -0.0
  outer loop
    vertex 100.0 0.0 5.000000000000001
    vertex 0.0 0.0 0.0
    vertex 100.0 0.0 0.0
  endloop
endfacet
facet normal -0.0 -1.0 -0.0
  outer loop
    vertex 0.0 0.0 0.0
    vertex 100.0 0.0 5.000000000000001
    vertex 0.0 0.0 5.000000000000001
  endloop
endfacet
facet normal -1.0 0.0 0.0
  outer loop
    vertex 0.0 122.0 5.000000000000001
    vertex 0.0 0.0 0.0
    vertex 0.0 0.0 5.000000000000001
  endloop
endfacet
facet normal -1.0 0.0 0.0
  outer loop
    vertex 0.0 0.0 0.0
    vertex 0.0 122.0 5.000000000000001
    vertex 0.0 122.0 0.0
  endloop
endfacet
facet normal 0.0 1.0 0.0
  outer loop
    vertex 0.0 122.0 5.000000000000001
    vertex 100.0 122.0 0.0
    vertex 0.0 122.0 0.0
  endloop
endfacet
facet normal 0.0 1.0 0.0
  outer loop
    vertex 100.0 122.0 0.0
    vertex 0.0 122.0 5.000000000000001
    vertex 100.0 122.0 5.000000000000001
  endloop
endfacet
facet normal -0.6536272332400334 -0.7568166488436808 6.362836083523458e-33
  outer loop
    vertex 71.87466428435613 100.53044233441436 5.000000000000001
    vertex 67.12813140761584 104.62980134884246 7.049916206369744e-16
    vertex 71.87466428435613 100.53044233441436 7.049916206369744e-16
  endloop
endfacet
facet normal -0.6536272332400334 -0.7568166488436808 6.362836083523458e-33
  outer loop
    vertex 67.12813140761584 104.62980134884246 7.049916206369744e-16
    vertex 71.87466428435613 100.53044233441436 5.000000000000001
    vertex 67.12813140761584 104.62980134884246 5.000000000000001
  endloop
endfacet
facet normal -0.48199288086789716 -0.876175132489313 7.689974352502233e-33
  outer loop
    vertex 67.12813140761584 104.62980134884246 5.000000000000001
    vertex 61.6330169984694 107.65271985742669 7.049916206369744e-16
    vertex 67.12813140761584 104.62980134884246 7.049916206369744e-16
  endloop
endfacet
facet normal -0.48199288086789716 -0.876175132489313 7.689974352502233e-33
  outer loop
    vertex 61.6330169984694 107.65271985742669 7.049916206369744e-16
    vertex 67.12813140761584 104.62980134884246 5.000000000000001
    vertex 61.6330169984694 107.65271985742669 5.000000000000001
  endloop
endfacet
facet normal -0.2892931267433795 -0.9572405584904138 8.681023841685695e-33
  outer loop
    vertex 61.6330169984694 107.65271985742669 5.000000000000001
    vertex 55.629483925081 109.46708181576949 7.049916206369744e-16
    vertex 61.6330169984694 107.65271985742669 7.049916206369744e-16
  endloop
endfacet
facet normal -0.2892931267433795 -0.9572405584904138 8.681023841685695e-33
  outer loop
    vertex 55.629483925081 109.46708181576949 7.049916206369744e-16
    vertex 61.6330169984694 107.65271985742669 5.000000000000001
    vertex 55.629483925081 109.46708181576949 5.000000000000001
  endloop
endfacet
facet normal -0.0839498747977388 -0.9964699787356586 9.292670932813407e-33
  outer loop
    vertex 55.629483925081 109.46708181576949 5.000000000000001
    vertex 49.3799153909056 109.99359090001667 7.049916206369744e-16
    vertex 55.629483925081 109.46708181576949 7.049916206369744e-16
  endloop
endfacet
facet normal -0.0839498747977388 -0.9964699787356586 9.292670932813407e-33
  outer loop
    vertex 49.3799153909056 109.99359090001667 7.049916206369744e-16
    vertex 55.629483925081 109.46708181576949 5.000000000000001
    vertex 49.3799153909056 109.99359090001667 5.000000000000001
  endloop
endfacet
facet normal 0.1250623895127557 -0.992148879316688 9.498183712994731e-33
  outer loop
    vertex 49.3799153909056 109.99359090001667 5.000000000000001
    vertex 43.157447529643726 109.20923613671572 7.049916206369744e-16
    vertex 49.3799153909056 109.99359090001667 7.049916206369744e-16
  endloop
endfacet
facet normal 0.1250623895127557 -0.992148879316688 9.498183712994731e-33
  outer loop
    vertex 43.157447529643726 109.20923613671572 7.049916206369744e-16
    vertex 49.3799153909056 109.99359090001667 5.000000000000001
    vertex 43.157447529643726 109.20923613671572 5.000000000000001
  endloop
endfacet
facet normal 0.3286088272856174 -0.9444661130130458 9.288580287575997e-33
  outer loop
    vertex 43.157447529643726 109.20923613671572 5.000000000000001
    vertex 37.23403204554606 107.14829759277464 7.049916206369744e-16
    vertex 43.157447529643726 109.20923613671572 7.049916206369744e-16
  endloop
endfacet
facet normal 0.3286088272856174 -0.9444661130130458 9.288580287575997e-33
  outer loop
    vertex 37.23403204554606 107.14829759277464 7.049916206369744e-16
    vertex 43.157447529643726 109.20923613671572 5.000000000000001
    vertex 37.23403204554606 107.14829759277464 5.000000000000001
  endloop
endfacet
facet normal 0.517793482465993 -0.8555056455195019 8.673021332036847e-33
  outer loop
    vertex 37.23403204554606 107.14829759277464 5.000000000000001
    vertex 31.868550618968733 103.90084817204402 7.049916206369744e-16
    vertex 37.23403204554606 107.14829759277464 7.049916206369744e-16
  endloop
endfacet
facet normal 0.517793482465993 -0.8555056455195019 8.673021332036847e-33
  outer loop
    vertex 31.868550618968733 103.90084817204402 7.049916206369744e-16
    vertex 37.23403204554606 107.14829759277464 5.000000000000001
    vertex 31.868550618968733 103.90084817204402 5.000000000000001
  endloop
endfacet
facet normal 0.6843480778138137 -0.7291554761452035 7.678409726513894e-33
  outer loop
    vertex 31.868550618968733 103.90084817204402 5.000000000000001
    vertex 27.29550053468958 99.60881699720098 7.049916206369744e-16
    vertex 31.868550618968733 103.90084817204402 7.049916206369744e-16
  endloop
endfacet
facet normal 0.6843480778138137 -0.7291554761452035 7.678409726513894e-33
  outer loop
    vertex 27.29550053468958 99.60881699720098 7.049916206369744e-16
    vertex 31.868550618968733 103.90084817204402 5.000000000000001
    vertex 27.29550053468958 99.60881699720098 5.000000000000001
  endloop
endfacet
facet normal 0.820993378294751 -0.5709377135871931 6.34821477084453e-33
  outer loop
    vertex 27.29550053468958 99.60881699720098 7.049916206369744e-16
    vertex 23.71474602532056 94.4597864260368 5.000000000000001
    vertex 23.71474602532056 94.4597864260368 7.049916206369744e-16
  endloop
endfacet
facet normal 0.820993378294751 -0.5709377135871931 6.34821477084453e-33
  outer loop
    vertex 23.71474602532056 94.4597864260368 5.000000000000001
    vertex 27.29550053468958 99.60881699720098 7.049916206369744e-16
    vertex 27.29550053468958 99.60881699720098 5.000000000000001
  endloop
endfacet
facet normal 0.9217573285808915 -0.3877672332823112 4.7405723675750695e-33
  outer loop
    vertex 23.71474602532056 94.4597864260368 7.049916206369744e-16
    vertex 21.28278324528758 88.67879380230131 5.000000000000001
    vertex 21.28278324528758 88.67879380230131 7.049916206369744e-16
  endloop
endfacet
facet normal 0.9217573285808915 -0.3877672332823112 4.7405723675750695e-33
  outer loop
    vertex 21.28278324528758 88.67879380230131 5.000000000000001
    vertex 23.71474602532056 94.4597864260368 7.049916206369744e-16
    vertex 23.71474602532056 94.4597864260368 5.000000000000001
  endloop
endfacet
facet normal 0.9822360605256509 -0.18764946416936504 2.9257442040525386e-33
  outer loop
    vertex 21.28278324528758 88.67879380230131 7.049916206369744e-16
    vertex 20.105900637930237 82.5184962439321 5.000000000000001
    vertex 20.105900637930237 82.5184962439321 7.049916206369744e-16
  endloop
endfacet
facet normal 0.9822360605256509 -0.18764946416936504 2.9257442040525386e-33
  outer loop
    vertex 20.105900637930237 82.5184962439321 5.000000000000001
    vertex 21.28278324528758 88.67879380230131 7.049916206369744e-16
    vertex 21.28278324528758 88.67879380230131 5.000000000000001
  endloop
endfacet
facet normal 0.9997863633338898 0.020669486969814264 9.830469795345846e-34
  outer loop
    vertex 20.105900637930237 82.5184962439321 7.049916206369744e-16
    vertex 20.235533620499368 76.24812831461725 5.000000000000001
    vertex 20.235533620499368 76.24812831461725 7.049916206369744e-16
  endloop
endfacet
facet normal 0.9997863633338898 0.020669486969814264 9.830469795345846e-34
  outer loop
    vertex 20.235533620499368 76.24812831461725 5.000000000000001
    vertex 20.105900637930237 82.5184962439321 7.049916206369744e-16
    vertex 20.105900637930237 82.5184962439321 5.000000000000001
  endloop
endfacet
facet normal 0.9736412045571913 0.2280850823452109 -1.0026141151718101e-33
  outer loop
    vertex 20.235533620499368 76.24812831461725 7.049916206369744e-16
    vertex 21.666016609608626 70.14173518143147 5.000000000000001
    vertex 21.666016609608626 70.14173518143147 7.049916206369744e-16
  endloop
endfacet
facet normal 0.9736412045571913 0.2280850823452109 -1.0026141151718101e-33
  outer loop
    vertex 21.666016609608626 70.14173518143147 5.000000000000001
    vertex 20.235533620499368 76.24812831461725 7.049916206369744e-16
    vertex 20.235533620499368 76.24812831461725 5.000000000000001
  endloop
endfacet
facet normal 0.9049432530924889 0.4255322651484654 -2.9444561619688784e-33
  outer loop
    vertex 21.666016609608626 70.14173518143147 7.049916206369744e-16
    vertex 24.334830634414992 64.46619552602012 5.000000000000001
    vertex 24.334830634414992 64.46619552602012 7.049916206369744e-16
  endloop
endfacet
facet normal 0.9049432530924889 0.4255322651484654 -2.9444561619688784e-33
  outer loop
    vertex 24.334830634414992 64.46619552602012 5.000000000000001
    vertex 21.666016609608626 70.14173518143147 7.049916206369744e-16
    vertex 21.666016609608626 70.14173518143147 5.000000000000001
  endloop
endfacet
facet normal 0.7966949390681346 0.6043816460343756 -4.75761134541965e-33
  outer loop
    vertex 24.334830634414992 64.46619552602012 7.049916206369744e-16
    vertex 28.125335715643878 59.46955766558558 5.000000000000001
    vertex 28.125335715643878 59.46955766558558 7.049916206369744e-16
  endloop
endfacet
facet normal 0.7966949390681346 0.6043816460343756 -4.75761134541965e-33
  outer loop
    vertex 28.125335715643878 59.46955766558558 5.000000000000001
    vertex 24.334830634414992 64.46619552602012 7.049916206369744e-16
    vertex 24.334830634414992 64.46619552602012 5.000000000000001
  endloop
endfacet
facet normal 0.6536272332400336 0.7568166488436805 -6.362836083523454e-33
  outer loop
    vertex 28.125335715643878 59.46955766558558 5.000000000000001
    vertex 32.87186859238419 55.37019865115746 7.049916206369744e-16
    vertex 28.125335715643878 59.46955766558558 7.049916206369744e-16
  endloop
endfacet
facet normal 0.6536272332400336 0.7568166488436805 -6.362836083523454e-33
  outer loop
    vertex 32.87186859238419 55.37019865115746 7.049916206369744e-16
    vertex 28.125335715643878 59.46955766558558 5.000000000000001
    vertex 32.87186859238419 55.37019865115746 5.000000000000001
  endloop
endfacet
facet normal 0.4819928808678958 0.8761751324893138 -7.689974352502242e-33
  outer loop
    vertex 32.87186859238419 55.37019865115746 5.000000000000001
    vertex 38.36698300153063 52.34728014257324 7.049916206369744e-16
    vertex 32.87186859238419 55.37019865115746 7.049916206369744e-16
  endloop
endfacet
facet normal 0.4819928808678958 0.8761751324893138 -7.689974352502242e-33
  outer loop
    vertex 38.36698300153063 52.34728014257324 7.049916206369744e-16
    vertex 32.87186859238419 55.37019865115746 5.000000000000001
    vertex 38.36698300153063 52.34728014257324 5.000000000000001
  endloop
endfacet
facet normal 0.2892931267433775 0.9572405584904142 -8.681023841685702e-33
  outer loop
    vertex 38.36698300153063 52.34728014257324 5.000000000000001
    vertex 44.370516074919024 50.53291818423046 7.049916206369744e-16
    vertex 38.36698300153063 52.34728014257324 7.049916206369744e-16
  endloop
endfacet
facet normal 0.2892931267433775 0.9572405584904142 -8.681023841685702e-33
  outer loop
    vertex 44.370516074919024 50.53291818423046 7.049916206369744e-16
    vertex 38.36698300153063 52.34728014257324 5.000000000000001
    vertex 44.370516074919024 50.53291818423046 5.000000000000001
  endloop
endfacet
facet normal 0.08394987479773992 0.9964699787356587 -9.292670932813409e-33
  outer loop
    vertex 44.370516074919024 50.53291818423046 5.000000000000001
    vertex 50.6200846090944 50.00640909998328 7.049916206369744e-16
    vertex 44.370516074919024 50.53291818423046 7.049916206369744e-16
  endloop
endfacet
facet normal 0.08394987479773992 0.9964699787356587 -9.292670932813409e-33
  outer loop
    vertex 50.6200846090944 50.00640909998328 7.049916206369744e-16
    vertex 44.370516074919024 50.53291818423046 5.000000000000001
    vertex 50.6200846090944 50.00640909998328 5.000000000000001
  endloop
endfacet
facet normal -0.1250623895127577 0.9921488793166878 -9.49818371299473e-33
  outer loop
    vertex 50.6200846090944 50.00640909998328 5.000000000000001
    vertex 56.84255247035627 50.79076386328423 7.049916206369744e-16
    vertex 50.6200846090944 50.00640909998328 7.049916206369744e-16
  endloop
endfacet
facet normal -0.1250623895127577 0.9921488793166878 -9.49818371299473e-33
  outer loop
    vertex 56.84255247035627 50.79076386328423 7.049916206369744e-16
    vertex 50.6200846090944 50.00640909998328 5.000000000000001
    vertex 56.84255247035627 50.79076386328423 5.000000000000001
  endloop
endfacet
facet normal -0.3286088272856142 0.944466113013047 -9.288580287576002e-33
  outer loop
    vertex 56.84255247035627 50.79076386328423 5.000000000000001
    vertex 62.765967954453934 52.8517024072253 7.049916206369744e-16
    vertex 56.84255247035627 50.79076386328423 7.049916206369744e-16
  endloop
endfacet
facet normal -0.3286088272856142 0.944466113013047 -9.288580287576002e-33
  outer loop
    vertex 62.765967954453934 52.8517024072253 7.049916206369744e-16
    vertex 56.84255247035627 50.79076386328423 5.000000000000001
    vertex 62.765967954453934 52.8517024072253 5.000000000000001
  endloop
endfacet
facet normal -0.517793482465996 0.8555056455195001 -8.673021332036833e-33
  outer loop
    vertex 62.765967954453934 52.8517024072253 5.000000000000001
    vertex 68.13144938103126 56.09915182795593 7.049916206369744e-16
    vertex 62.765967954453934 52.8517024072253 7.049916206369744e-16
  endloop
endfacet
facet normal -0.517793482465996 0.8555056455195001 -8.673021332036833e-33
  outer loop
    vertex 68.13144938103126 56.09915182795593 7.049916206369744e-16
    vertex 62.765967954453934 52.8517024072253 5.000000000000001
    vertex 68.13144938103126 56.09915182795593 5.000000000000001
  endloop
endfacet
facet normal -0.6843480778138128 0.7291554761452045 -7.678409726513902e-33
  outer loop
    vertex 68.13144938103126 56.09915182795593 5.000000000000001
    vertex 72.7044994653104 60.39118300279896 7.049916206369744e-16
    vertex 68.13144938103126 56.09915182795593 7.049916206369744e-16
  endloop
endfacet
facet normal -0.6843480778138128 0.7291554761452045 -7.678409726513902e-33
  outer loop
    vertex 72.7044994653104 60.39118300279896 7.049916206369744e-16
    vertex 68.13144938103126 56.09915182795593 5.000000000000001
    vertex 72.7044994653104 60.39118300279896 5.000000000000001
  endloop
endfacet
facet normal -0.8209933782947513 0.5709377135871931 -6.348214770844532e-33
  outer loop
    vertex 76.28525397467942 65.54021357396313 5.000000000000001
    vertex 72.7044994653104 60.39118300279896 7.049916206369744e-16
    vertex 72.7044994653104 60.39118300279896 5.000000000000001
  endloop
endfacet
facet normal -0.8209933782947513 0.5709377135871931 -6.348214770844532e-33
  outer loop
    vertex 72.7044994653104 60.39118300279896 7.049916206369744e-16
    vertex 76.28525397467942 65.54021357396313 5.000000000000001
    vertex 76.28525397467942 65.54021357396313 7.049916206369744e-16
  endloop
endfacet
facet normal -0.9217573285808908 0.387767233282313 -4.740572367575085e-33
  outer loop
    vertex 78.71721675471241 71.32120619769861 5.000000000000001
    vertex 76.28525397467942 65.54021357396313 7.049916206369744e-16
    vertex 76.28525397467942 65.54021357396313 5.000000000000001
  endloop
endfacet
facet normal -0.9217573285808908 0.387767233282313 -4.740572367575085e-33
  outer loop
    vertex 76.28525397467942 65.54021357396313 7.049916206369744e-16
    vertex 78.71721675471241 71.32120619769861 5.000000000000001
    vertex 78.71721675471241 71.32120619769861 7.049916206369744e-16
  endloop
endfacet
facet normal -0.9822360605256509 0.18764946416936595 -2.925744204052547e-33
  outer loop
    vertex 79.89409936206975 77.48150375606782 5.000000000000001
    vertex 78.71721675471241 71.32120619769861 7.049916206369744e-16
    vertex 78.71721675471241 71.32120619769861 5.000000000000001
  endloop
endfacet
facet normal -0.9822360605256509 0.18764946416936595 -2.925744204052547e-33
  outer loop
    vertex 78.71721675471241 71.32120619769861 7.049916206369744e-16
    vertex 79.89409936206975 77.48150375606782 5.000000000000001
    vertex 79.89409936206975 77.48150375606782 7.049916206369744e-16
  endloop
endfacet
facet normal -0.9997863633338899 -0.020669486969814754 -9.830469795345801e-34
  outer loop
    vertex 79.76446637950062 83.75187168538265 5.000000000000001
    vertex 79.89409936206975 77.48150375606782 7.049916206369744e-16
    vertex 79.89409936206975 77.48150375606782 5.000000000000001
  endloop
endfacet
facet normal -0.9997863633338899 -0.020669486969814754 -9.830469795345801e-34
  outer loop
    vertex 79.89409936206975 77.48150375606782 7.049916206369744e-16
    vertex 79.76446637950062 83.75187168538265 5.000000000000001
    vertex 79.76446637950062 83.75187168538265 7.049916206369744e-16
  endloop
endfacet
facet normal -0.973641204557192 -0.22808508234520847 1.0026141151717865e-33
  outer loop
    vertex 78.33398339039137 89.85826481856847 5.000000000000001
    vertex 79.76446637950062 83.75187168538265 7.049916206369744e-16
    vertex 79.76446637950062 83.75187168538265 5.000000000000001
  endloop
endfacet
facet normal -0.973641204557192 -0.22808508234520847 1.0026141151717865e-33
  outer loop
    vertex 79.76446637950062 83.75187168538265 7.049916206369744e-16
    vertex 78.33398339039137 89.85826481856847 5.000000000000001
    vertex 78.33398339039137 89.85826481856847 7.049916206369744e-16
  endloop
endfacet
facet normal -0.9049432530924892 -0.4255322651484642 2.9444561619688667e-33
  outer loop
    vertex 75.66516936558502 95.53380447397981 5.000000000000001
    vertex 78.33398339039137 89.85826481856847 7.049916206369744e-16
    vertex 78.33398339039137 89.85826481856847 5.000000000000001
  endloop
endfacet
facet normal -0.9049432530924892 -0.4255322651484642 2.9444561619688667e-33
  outer loop
    vertex 78.33398339039137 89.85826481856847 7.049916206369744e-16
    vertex 75.66516936558502 95.53380447397981 5.000000000000001
    vertex 75.66516936558502 95.53380447397981 7.049916206369744e-16
  endloop
endfacet
facet normal -0.7966949390681353 -0.604381646034375 4.757611345419644e-33
  outer loop
    vertex 71.87466428435613 100.53044233441436 5.000000000000001
    vertex 75.66516936558502 95.53380447397981 7.049916206369744e-16
    vertex 75.66516936558502 95.53380447397981 5.000000000000001
  endloop
endfacet
facet normal -0.7966949390681353 -0.604381646034375 4.757611345419644e-33
  outer loop
    vertex 75.66516936558502 95.53380447397981 7.049916206369744e-16
    vertex 71.87466428435613 100.53044233441436 5.000000000000001
    vertex 71.87466428435613 100.53044233441436 7.049916206369744e-16
  endloop
endfacet
endsolid table
