solid top3-4
facet normal 0.0 0.0 -1.0
  outer loop
    vertex 0.0 200.0 0.0
    vertex 81.02986758897546 101.2829381964127 -1.127986593019159e-14
    vertex 0.0 0.0 0.0
  endloop
endfacet
facet normal 0.0 0.0 -1.0
  outer loop
    vertex 81.02986758897546 101.2829381964127 -1.127986593019159e-14
    vertex 0.0 200.0 0.0
    vertex 84.82982370845097 104.87122923433081 -1.127986593019159e-14
  endloop
endfacet
facet normal 0.0 0.0 -1.0
  outer loop
    vertex 84.82982370845097 104.87122923433081 -1.127986593019159e-14
    vertex 0.0 200.0 0.0
    vertex 200.0 200.0 0.0
  endloop
endfacet
facet normal 0.0 0.0 -1.0
  outer loop
    vertex 0.0 0.0 0.0
    vertex 81.02986758897546 101.2829381964127 -1.127986593019159e-14
    vertex 78.0589972846565 96.98300462510501 -1.127986593019159e-14
  endloop
endfacet
facet normal 0.0 0.0 -1.0
  outer loop
    vertex 0.0 0.0 0.0
    vertex 78.0589972846565 96.98300462510501 -1.127986593019159e-14
    vertex 76.04705408361022 92.15935625084445 -1.127986593019159e-14
  endloop
endfacet
facet normal 0.0 0.0 -1.0
  outer loop
    vertex 0.0 0.0 0.0
    vertex 76.04705408361022 92.15935625084445 -1.127986593019159e-14
    vertex 75.08196955809697 87.02280965401913 -1.127986593019159e-14
  endloop
endfacet
facet normal 0.0 0.0 -1.0
  outer loop
    vertex 84.82982370845097 104.87122923433081 -1.127986593019159e-14
    vertex 200.0 200.0 0.0
    vertex 89.2927893264495 107.59105220197158 -1.127986593019159e-14
  endloop
endfacet
facet normal 0.0 0.0 -1.0
  outer loop
    vertex 89.2927893264495 107.59105220197158 -1.127986593019159e-14
    vertex 200.0 200.0 0.0
    vertex 94.22371142977936 109.3235377844905 -1.127986593019159e-14
  endloop
endfacet
facet normal 0.0 0.0 -1.0
  outer loop
    vertex 94.22371142977936 109.3235377844905 -1.127986593019159e-14
    vertex 200.0 200.0 0.0
    vertex 99.40708506133566 109.99296804854333 -1.127986593019159e-14
  endloop
endfacet
facet normal 0.0 0.0 -1.0
  outer loop
    vertex 99.40708506133566 109.99296804854333 -1.127986593019159e-14
    vertex 200.0 200.0 0.0
    vertex 104.61637192083313 109.57008567930812 -1.127986593019159e-14
  endloop
endfacet
facet normal 0.0 0.0 -1.0
  outer loop
    vertex 104.61637192083313 109.57008567930812 -1.127986593019159e-14
    vertex 200.0 200.0 0.0
    vertex 109.62390117558002 108.07337266553523 -1.127986593019159e-14
  endloop
endfacet
facet normal 0.0 0.0 -1.0
  outer loop
    vertex 109.62390117558002 108.07337266553523 -1.127986593019159e-14
    vertex 200.0 200.0 0.0
    vertex 114.21081976835252 105.56824254795241 -1.127986593019159e-14
  endloop
endfacet
facet normal 0.0 0.0 -1.0
  outer loop
    vertex 114.21081976835252 105.56824254795241 -1.127986593019159e-14
    vertex 200.0 200.0 0.0
    vertex 118.17665734616911 102.164181533646 -1.127986593019159e-14
  endloop
endfacet
facet normal 0.0 0.0 -1.0
  outer loop
    vertex 118.17665734616911 102.164181533646 -1.127986593019159e-14
    vertex 200.0 200.0 0.0
    vertex 121.34808777667914 98.00996342343828 -1.127986593019159e-14
  endloop
endfacet
facet normal 0.0 0.0 -1.0
  outer loop
    vertex 121.34808777667914 98.00996342343828 -1.127986593019159e-14
    vertex 200.0 200.0 0.0
    vertex 123.58650433185765 93.28714748289542 -1.127986593019159e-14
  endloop
endfacet
facet normal 0.0 0.0 -1.0
  outer loop
    vertex 123.58650433185765 93.28714748289542 -1.127986593019159e-14
    vertex 200.0 200.0 0.0
    vertex 124.794077467129 88.20214343120442 -1.127986593019159e-14
  endloop
endfacet
facet normal 0.0 0.0 -1.0
  outer loop
    vertex 124.794077467129 88.20214343120442 -1.127986593019159e-14
    vertex 200.0 200.0 0.0
    vertex 124.91803044190304 82.97719034598084 -1.127986593019159e-14
  endloop
endfacet
facet normal 0.0 0.0 -1.0
  outer loop
    vertex 0.0 0.0 0.0
    vertex 85.78918023164748 64.43175745204755 -1.127986593019159e-14
    vertex 200.0 0.0 0.0
  endloop
endfacet
facet normal 0.0 0.0 -1.0
  outer loop
    vertex 85.78918023164748 64.43175745204755 -1.127986593019159e-14
    vertex 0.0 0.0 0.0
    vertex 81.82334265383089 67.83581846635394 -1.127986593019159e-14
  endloop
endfacet
facet normal 0.0 0.0 -1.0
  outer loop
    vertex 81.82334265383089 67.83581846635394 -1.127986593019159e-14
    vertex 0.0 0.0 0.0
    vertex 78.65191222332088 71.99003657656169 -1.127986593019159e-14
  endloop
endfacet
facet normal 0.0 0.0 -1.0
  outer loop
    vertex 78.65191222332088 71.99003657656169 -1.127986593019159e-14
    vertex 0.0 0.0 0.0
    vertex 76.41349566814236 76.71285251710454 -1.127986593019159e-14
  endloop
endfacet
facet normal 0.0 0.0 -1.0
  outer loop
    vertex 76.41349566814236 76.71285251710454 -1.127986593019159e-14
    vertex 0.0 0.0 0.0
    vertex 75.205922532871 81.79785656879554 -1.127986593019159e-14
  endloop
endfacet
facet normal 0.0 0.0 -1.0
  outer loop
    vertex 75.205922532871 81.79785656879554 -1.127986593019159e-14
    vertex 0.0 0.0 0.0
    vertex 75.08196955809697 87.02280965401913 -1.127986593019159e-14
  endloop
endfacet
facet normal 0.0 0.0 -1.0
  outer loop
    vertex 200.0 0.0 0.0
    vertex 85.78918023164748 64.43175745204755 -1.127986593019159e-14
    vertex 90.37609882442001 61.92662733446473 -1.127986593019159e-14
  endloop
endfacet
facet normal 0.0 0.0 -1.0
  outer loop
    vertex 200.0 0.0 0.0
    vertex 90.37609882442001 61.92662733446473 -1.127986593019159e-14
    vertex 95.3836280791669 60.42991432069184 -1.127986593019159e-14
  endloop
endfacet
facet normal 0.0 0.0 -1.0
  outer loop
    vertex 200.0 0.0 0.0
    vertex 95.3836280791669 60.42991432069184 -1.127986593019159e-14
    vertex 100.59291493866435 60.00703195145666 -1.127986593019159e-14
  endloop
endfacet
facet normal 0.0 0.0 -1.0
  outer loop
    vertex 200.0 0.0 0.0
    vertex 100.59291493866435 60.00703195145666 -1.127986593019159e-14
    vertex 105.77628857022063 60.676462215509474 -1.127986593019159e-14
  endloop
endfacet
facet normal 0.0 0.0 -1.0
  outer loop
    vertex 200.0 0.0 0.0
    vertex 105.77628857022063 60.676462215509474 -1.127986593019159e-14
    vertex 110.70721067355052 62.4089477980284 -1.127986593019159e-14
  endloop
endfacet
facet normal 0.0 0.0 -1.0
  outer loop
    vertex 200.0 0.0 0.0
    vertex 110.70721067355052 62.4089477980284 -1.127986593019159e-14
    vertex 115.170176291549 65.12877076566917 -1.127986593019159e-14
  endloop
endfacet
facet normal 0.0 0.0 -1.0
  outer loop
    vertex 200.0 0.0 0.0
    vertex 115.170176291549 65.12877076566917 -1.127986593019159e-14
    vertex 118.97013241102454 68.71706180358727 -1.127986593019159e-14
  endloop
endfacet
facet normal 0.0 0.0 -1.0
  outer loop
    vertex 200.0 0.0 0.0
    vertex 118.97013241102454 68.71706180358727 -1.127986593019159e-14
    vertex 121.94100271534349 73.01699537489495 -1.127986593019159e-14
  endloop
endfacet
facet normal 0.0 0.0 -1.0
  outer loop
    vertex 200.0 0.0 0.0
    vertex 121.94100271534349 73.01699537489495 -1.127986593019159e-14
    vertex 123.95294591638975 77.84064374915552 -1.127986593019159e-14
  endloop
endfacet
facet normal 0.0 0.0 -1.0
  outer loop
    vertex 200.0 0.0 0.0
    vertex 123.95294591638975 77.84064374915552 -1.127986593019159e-14
    vertex 124.91803044190304 82.97719034598084 -1.127986593019159e-14
  endloop
endfacet
facet normal 0.0 0.0 -1.0
  outer loop
    vertex 200.0 0.0 0.0
    vertex 124.91803044190304 82.97719034598084 -1.127986593019159e-14
    vertex 200.0 200.0 0.0
  endloop
endfacet
facet normal -0.0 -0.0 1.0
  outer loop
    vertex 0.0 0.0 6.0
    vertex 78.65191222332088 71.99003657656169 5.999999999999989
    vertex 0.0 200.0 6.0
  endloop
endfacet
facet normal -0.0 -0.0 1.0
  outer loop
    vertex 78.65191222332088 71.99003657656169 5.999999999999989
    vertex 0.0 0.0 6.0
    vertex 81.82334265383089 67.83581846635394 5.999999999999989
  endloop
endfacet
facet normal -0.0 -0.0 1.0
  outer loop
    vertex 81.82334265383089 67.83581846635394 5.999999999999989
    vertex 0.0 0.0 6.0
    vertex 85.78918023164748 64.43175745204755 5.999999999999989
  endloop
endfacet
facet normal -0.0 -0.0 1.0
  outer loop
    vertex 85.78918023164748 64.43175745204755 5.999999999999989
    vertex 0.0 0.0 6.0
    vertex 200.0 0.0 6.0
  endloop
endfacet
facet normal -0.0 -0.0 1.0
  outer loop
    vertex 0.0 200.0 6.0
    vertex 78.65191222332088 71.99003657656169 5.999999999999989
    vertex 76.41349566814236 76.71285251710454 5.999999999999989
  endloop
endfacet
facet normal -0.0 -0.0 1.0
  outer loop
    vertex 0.0 200.0 6.0
    vertex 76.41349566814236 76.71285251710454 5.999999999999989
    vertex 75.205922532871 81.79785656879554 5.999999999999989
  endloop
endfacet
facet normal -0.0 -0.0 1.0
  outer loop
    vertex 0.0 200.0 6.0
    vertex 75.205922532871 81.79785656879554 5.999999999999989
    vertex 75.08196955809697 87.02280965401913 5.999999999999989
  endloop
endfacet
facet normal -0.0 -0.0 1.0
  outer loop
    vertex 85.78918023164748 64.43175745204755 5.999999999999989
    vertex 200.0 0.0 6.0
    vertex 90.37609882442001 61.92662733446473 5.999999999999989
  endloop
endfacet
facet normal -0.0 -0.0 1.0
  outer loop
    vertex 90.37609882442001 61.92662733446473 5.999999999999989
    vertex 200.0 0.0 6.0
    vertex 95.3836280791669 60.42991432069184 5.999999999999989
  endloop
endfacet
facet normal -0.0 -0.0 1.0
  outer loop
    vertex 95.3836280791669 60.42991432069184 5.999999999999989
    vertex 200.0 0.0 6.0
    vertex 100.59291493866435 60.00703195145666 5.999999999999989
  endloop
endfacet
facet normal -0.0 -0.0 1.0
  outer loop
    vertex 100.59291493866435 60.00703195145666 5.999999999999989
    vertex 200.0 0.0 6.0
    vertex 105.77628857022063 60.676462215509474 5.999999999999989
  endloop
endfacet
facet normal -0.0 -0.0 1.0
  outer loop
    vertex 105.77628857022063 60.676462215509474 5.999999999999989
    vertex 200.0 0.0 6.0
    vertex 110.70721067355052 62.4089477980284 5.999999999999989
  endloop
endfacet
facet normal -0.0 -0.0 1.0
  outer loop
    vertex 110.70721067355052 62.4089477980284 5.999999999999989
    vertex 200.0 0.0 6.0
    vertex 115.170176291549 65.12877076566917 5.999999999999989
  endloop
endfacet
facet normal -0.0 -0.0 1.0
  outer loop
    vertex 115.170176291549 65.12877076566917 5.999999999999989
    vertex 200.0 0.0 6.0
    vertex 118.97013241102454 68.71706180358727 5.999999999999989
  endloop
endfacet
facet normal -0.0 -0.0 1.0
  outer loop
    vertex 118.97013241102454 68.71706180358727 5.999999999999989
    vertex 200.0 0.0 6.0
    vertex 121.94100271534349 73.01699537489495 5.999999999999989
  endloop
endfacet
facet normal -0.0 -0.0 1.0
  outer loop
    vertex 121.94100271534349 73.01699537489495 5.999999999999989
    vertex 200.0 0.0 6.0
    vertex 123.95294591638975 77.84064374915552 5.999999999999989
  endloop
endfacet
facet normal -0.0 -0.0 1.0
  outer loop
    vertex 123.95294591638975 77.84064374915552 5.999999999999989
    vertex 200.0 0.0 6.0
    vertex 124.91803044190304 82.97719034598084 5.999999999999989
  endloop
endfacet
facet normal -0.0 -0.0 1.0
  outer loop
    vertex 0.0 200.0 6.0
    vertex 84.82982370845097 104.87122923433081 5.999999999999989
    vertex 200.0 200.0 6.0
  endloop
endfacet
facet normal -0.0 -0.0 1.0
  outer loop
    vertex 84.82982370845097 104.87122923433081 5.999999999999989
    vertex 0.0 200.0 6.0
    vertex 81.02986758897546 101.2829381964127 5.999999999999989
  endloop
endfacet
facet normal -0.0 -0.0 1.0
  outer loop
    vertex 81.02986758897546 101.2829381964127 5.999999999999989
    vertex 0.0 200.0 6.0
    vertex 78.0589972846565 96.98300462510501 5.999999999999989
  endloop
endfacet
facet normal -0.0 -0.0 1.0
  outer loop
    vertex 78.0589972846565 96.98300462510501 5.999999999999989
    vertex 0.0 200.0 6.0
    vertex 76.04705408361022 92.15935625084445 5.999999999999989
  endloop
endfacet
facet normal -0.0 -0.0 1.0
  outer loop
    vertex 76.04705408361022 92.15935625084445 5.999999999999989
    vertex 0.0 200.0 6.0
    vertex 75.08196955809697 87.02280965401913 5.999999999999989
  endloop
endfacet
facet normal -0.0 -0.0 1.0
  outer loop
    vertex 200.0 200.0 6.0
    vertex 84.82982370845097 104.87122923433081 5.999999999999989
    vertex 89.2927893264495 107.59105220197158 5.999999999999989
  endloop
endfacet
facet normal -0.0 -0.0 1.0
  outer loop
    vertex 200.0 200.0 6.0
    vertex 89.2927893264495 107.59105220197158 5.999999999999989
    vertex 94.22371142977936 109.3235377844905 5.999999999999989
  endloop
endfacet
facet normal -0.0 -0.0 1.0
  outer loop
    vertex 200.0 200.0 6.0
    vertex 94.22371142977936 109.3235377844905 5.999999999999989
    vertex 99.40708506133566 109.99296804854333 5.999999999999989
  endloop
endfacet
facet normal -0.0 -0.0 1.0
  outer loop
    vertex 200.0 200.0 6.0
    vertex 99.40708506133566 109.99296804854333 5.999999999999989
    vertex 104.61637192083313 109.57008567930812 5.999999999999989
  endloop
endfacet
facet normal -0.0 -0.0 1.0
  outer loop
    vertex 200.0 200.0 6.0
    vertex 104.61637192083313 109.57008567930812 5.999999999999989
    vertex 109.62390117558002 108.07337266553523 5.999999999999989
  endloop
endfacet
facet normal -0.0 -0.0 1.0
  outer loop
    vertex 200.0 200.0 6.0
    vertex 109.62390117558002 108.07337266553523 5.999999999999989
    vertex 114.21081976835252 105.56824254795241 5.999999999999989
  endloop
endfacet
facet normal -0.0 -0.0 1.0
  outer loop
    vertex 200.0 200.0 6.0
    vertex 114.21081976835252 105.56824254795241 5.999999999999989
    vertex 118.17665734616911 102.164181533646 5.999999999999989
  endloop
endfacet
facet normal -0.0 -0.0 1.0
  outer loop
    vertex 200.0 200.0 6.0
    vertex 118.17665734616911 102.164181533646 5.999999999999989
    vertex 121.34808777667914 98.00996342343828 5.999999999999989
  endloop
endfacet
facet normal -0.0 -0.0 1.0
  outer loop
    vertex 200.0 200.0 6.0
    vertex 121.34808777667914 98.00996342343828 5.999999999999989
    vertex 123.58650433185765 93.28714748289542 5.999999999999989
  endloop
endfacet
facet normal -0.0 -0.0 1.0
  outer loop
    vertex 200.0 200.0 6.0
    vertex 123.58650433185765 93.28714748289542 5.999999999999989
    vertex 124.794077467129 88.20214343120442 5.999999999999989
  endloop
endfacet
facet normal -0.0 -0.0 1.0
  outer loop
    vertex 200.0 200.0 6.0
    vertex 124.794077467129 88.20214343120442 5.999999999999989
    vertex 124.91803044190304 82.97719034598084 5.999999999999989
  endloop
endfacet
facet normal -0.0 -0.0 1.0
  outer loop
    vertex 200.0 200.0 6.0
    vertex 124.91803044190304 82.97719034598084 5.999999999999989
    vertex 200.0 0.0 6.0
  endloop
endfacet
facet normal -1.0 0.0 0.0
  outer loop
    vertex 0.0 200.0 6.0
    vertex 0.0 0.0 0.0
    vertex 0.0 0.0 6.0
  endloop
endfacet
facet normal -1.0 0.0 0.0
  outer loop
    vertex 0.0 0.0 0.0
    vertex 0.0 200.0 6.0
    vertex 0.0 200.0 0.0
  endloop
endfacet
facet normal -0.0 1.0 0.0
  outer loop
    vertex 0.0 200.0 6.0
    vertex 200.0 200.0 0.0
    vertex 0.0 200.0 0.0
  endloop
endfacet
facet normal -0.0 1.0 0.0
  outer loop
    vertex 200.0 200.0 0.0
    vertex 0.0 200.0 6.0
    vertex 200.0 200.0 6.0
  endloop
endfacet
facet normal 1.0 0.0 0.0
  outer loop
    vertex 200.0 200.0 0.0
    vertex 200.0 0.0 6.0
    vertex 200.0 0.0 0.0
  endloop
endfacet
facet normal 1.0 0.0 0.0
  outer loop
    vertex 200.0 0.0 6.0
    vertex 200.0 200.0 0.0
    vertex 200.0 200.0 6.0
  endloop
endfacet
facet normal -0.0 -1.0 -0.0
  outer loop
    vertex 200.0 0.0 6.0
    vertex 0.0 0.0 0.0
    vertex 200.0 0.0 0.0
  endloop
endfacet
facet normal -0.0 -1.0 -0.0
  outer loop
    vertex 0.0 0.0 0.0
    vertex 200.0 0.0 6.0
    vertex 0.0 0.0 6.0
  endloop
endfacet
facet normal -0.4793201850042013 -0.8776401086137405 -0.0
  outer loop
    vertex 114.21081976835252 105.56824254795241 5.999999999999989
    vertex 109.62390117558002 108.07337266553523 -1.127986593019159e-14
    vertex 114.21081976835252 105.56824254795241 -1.127986593019159e-14
  endloop
endfacet
facet normal -0.4793201850042013 -0.8776401086137405 -0.0
  outer loop
    vertex 109.62390117558002 108.07337266553523 -1.127986593019159e-14
    vertex 114.21081976835252 105.56824254795241 5.999999999999989
    vertex 109.62390117558002 108.07337266553523 5.999999999999989
  endloop
endfacet
facet normal -0.2863742500337802 -0.9581178366555912 -0.0
  outer loop
    vertex 109.62390117558002 108.07337266553523 5.999999999999989
    vertex 104.61637192083313 109.57008567930812 -1.127986593019159e-14
    vertex 109.62390117558002 108.07337266553523 -1.127986593019159e-14
  endloop
endfacet
facet normal -0.2863742500337802 -0.9581178366555912 -0.0
  outer loop
    vertex 104.61637192083313 109.57008567930812 -1.127986593019159e-14
    vertex 109.62390117558002 108.07337266553523 5.999999999999989
    vertex 104.61637192083313 109.57008567930812 5.999999999999989
  endloop
endfacet
facet normal -0.0809123861607713 -0.9967212176761215 -0.0
  outer loop
    vertex 104.61637192083313 109.57008567930812 5.999999999999989
    vertex 99.40708506133566 109.99296804854333 -1.127986593019159e-14
    vertex 104.61637192083313 109.57008567930812 -1.127986593019159e-14
  endloop
endfacet
facet normal -0.0809123861607713 -0.9967212176761215 -0.0
  outer loop
    vertex 99.40708506133566 109.99296804854333 -1.127986593019159e-14
    vertex 104.61637192083313 109.57008567930812 5.999999999999989
    vertex 99.40708506133566 109.99296804854333 5.999999999999989
  endloop
endfacet
facet normal 0.1280857372481802 -0.9917630986851599 -0.0
  outer loop
    vertex 99.40708506133566 109.99296804854333 5.999999999999989
    vertex 94.22371142977936 109.3235377844905 -1.127986593019159e-14
    vertex 99.40708506133566 109.99296804854333 -1.127986593019159e-14
  endloop
endfacet
facet normal 0.1280857372481802 -0.9917630986851599 -0.0
  outer loop
    vertex 94.22371142977936 109.3235377844905 -1.127986593019159e-14
    vertex 99.40708506133566 109.99296804854333 5.999999999999989
    vertex 94.22371142977936 109.3235377844905 5.999999999999989
  endloop
endfacet
facet normal 0.33148589931581657 -0.9434601732743065 -0.0
  outer loop
    vertex 94.22371142977936 109.3235377844905 5.999999999999989
    vertex 89.2927893264495 107.59105220197158 -1.127986593019159e-14
    vertex 94.22371142977936 109.3235377844905 -1.127986593019159e-14
  endloop
endfacet
facet normal 0.33148589931581657 -0.9434601732743065 -0.0
  outer loop
    vertex 89.2927893264495 107.59105220197158 -1.127986593019159e-14
    vertex 94.22371142977936 109.3235377844905 5.999999999999989
    vertex 89.2927893264495 107.59105220197158 5.999999999999989
  endloop
endfacet
facet normal 0.520398536937529 -0.8539235110671677 -0.0
  outer loop
    vertex 89.2927893264495 107.59105220197158 5.999999999999989
    vertex 84.82982370845097 104.87122923433081 -1.127986593019159e-14
    vertex 89.2927893264495 107.59105220197158 -1.127986593019159e-14
  endloop
endfacet
facet normal 0.520398536937529 -0.8539235110671677 -0.0
  outer loop
    vertex 84.82982370845097 104.87122923433081 -1.127986593019159e-14
    vertex 89.2927893264495 107.59105220197158 5.999999999999989
    vertex 84.82982370845097 104.87122923433081 5.999999999999989
  endloop
endfacet
facet normal 0.6865672613458427 -0.7270662938467642 -0.0
  outer loop
    vertex 84.82982370845097 104.87122923433081 5.999999999999989
    vertex 81.02986758897546 101.2829381964127 -1.127986593019159e-14
    vertex 84.82982370845097 104.87122923433081 -1.127986593019159e-14
  endloop
endfacet
facet normal 0.6865672613458427 -0.7270662938467642 -0.0
  outer loop
    vertex 81.02986758897546 101.2829381964127 -1.127986593019159e-14
    vertex 84.82982370845097 104.87122923433081 5.999999999999989
    vertex 81.02986758897546 101.2829381964127 5.999999999999989
  endloop
endfacet
facet normal 0.8227297019180989 -0.5684327907340991 -0.0
  outer loop
    vertex 81.02986758897546 101.2829381964127 -1.127986593019159e-14
    vertex 78.0589972846565 96.98300462510501 5.999999999999989
    vertex 78.0589972846565 96.98300462510501 -1.127986593019159e-14
  endloop
endfacet
facet normal 0.8227297019180989 -0.5684327907340991 -0.0
  outer loop
    vertex 78.0589972846565 96.98300462510501 5.999999999999989
    vertex 81.02986758897546 101.2829381964127 -1.127986593019159e-14
    vertex 81.02986758897546 101.2829381964127 5.999999999999989
  endloop
endfacet
facet normal 0.9229349066214108 -0.38495604702319974 -0.0
  outer loop
    vertex 78.0589972846565 96.98300462510501 -1.127986593019159e-14
    vertex 76.04705408361022 92.15935625084445 5.999999999999989
    vertex 76.04705408361022 92.15935625084445 -1.127986593019159e-14
  endloop
endfacet
facet normal 0.9229349066214108 -0.38495604702319974 -0.0
  outer loop
    vertex 76.04705408361022 92.15935625084445 5.999999999999989
    vertex 78.0589972846565 96.98300462510501 -1.127986593019159e-14
    vertex 78.0589972846565 96.98300462510501 5.999999999999989
  endloop
endfacet
facet normal 0.9828034271723264 -0.18465487683332318 -0.0
  outer loop
    vertex 76.04705408361022 92.15935625084445 -1.127986593019159e-14
    vertex 75.08196955809697 87.02280965401913 5.999999999999989
    vertex 75.08196955809697 87.02280965401913 -1.127986593019159e-14
  endloop
endfacet
facet normal 0.9828034271723264 -0.18465487683332318 -0.0
  outer loop
    vertex 75.08196955809697 87.02280965401913 5.999999999999989
    vertex 76.04705408361022 92.15935625084445 -1.127986593019159e-14
    vertex 76.04705408361022 92.15935625084445 5.999999999999989
  endloop
endfacet
facet normal 0.999718721941734 0.023716597546573317 0.0
  outer loop
    vertex 75.08196955809697 87.02280965401913 -1.127986593019159e-14
    vertex 75.205922532871 81.79785656879554 5.999999999999989
    vertex 75.205922532871 81.79785656879554 -1.127986593019159e-14
  endloop
endfacet
facet normal 0.999718721941734 0.023716597546573317 0.0
  outer loop
    vertex 75.205922532871 81.79785656879554 5.999999999999989
    vertex 75.08196955809697 87.02280965401913 -1.127986593019159e-14
    vertex 75.08196955809697 87.02280965401913 5.999999999999989
  endloop
endfacet
facet normal 0.9729415113796204 0.2310515428088289 0.0
  outer loop
    vertex 75.205922532871 81.79785656879554 -1.127986593019159e-14
    vertex 76.41349566814236 76.71285251710454 5.999999999999989
    vertex 76.41349566814236 76.71285251710454 -1.127986593019159e-14
  endloop
endfacet
facet normal 0.9729415113796204 0.2310515428088289 0.0
  outer loop
    vertex 76.41349566814236 76.71285251710454 5.999999999999989
    vertex 75.205922532871 81.79785656879554 -1.127986593019159e-14
    vertex 75.205922532871 81.79785656879554 5.999999999999989
  endloop
endfacet
facet normal 0.9036420880788636 0.42828842694202185 0.0
  outer loop
    vertex 76.41349566814236 76.71285251710454 -1.127986593019159e-14
    vertex 78.65191222332088 71.99003657656169 5.999999999999989
    vertex 78.65191222332088 71.99003657656169 -1.127986593019159e-14
  endloop
endfacet
facet normal 0.9036420880788636 0.42828842694202185 0.0
  outer loop
    vertex 78.65191222332088 71.99003657656169 5.999999999999989
    vertex 76.41349566814236 76.71285251710454 -1.127986593019159e-14
    vertex 76.41349566814236 76.71285251710454 5.999999999999989
  endloop
endfacet
facet normal 0.7948491693732338 0.60680705166196 0.0
  outer loop
    vertex 78.65191222332088 71.99003657656169 -1.127986593019159e-14
    vertex 81.82334265383089 67.83581846635394 5.999999999999989
    vertex 81.82334265383089 67.83581846635394 -1.127986593019159e-14
  endloop
endfacet
facet normal 0.7948491693732338 0.60680705166196 0.0
  outer loop
    vertex 81.82334265383089 67.83581846635394 5.999999999999989
    vertex 78.65191222332088 71.99003657656169 -1.127986593019159e-14
    vertex 78.65191222332088 71.99003657656169 5.999999999999989
  endloop
endfacet
facet normal 0.6513175278565085 0.7588052964409817 0.0
  outer loop
    vertex 81.82334265383089 67.83581846635394 5.999999999999989
    vertex 85.78918023164748 64.43175745204755 -1.127986593019159e-14
    vertex 81.82334265383089 67.83581846635394 -1.127986593019159e-14
  endloop
endfacet
facet normal 0.6513175278565085 0.7588052964409817 0.0
  outer loop
    vertex 85.78918023164748 64.43175745204755 -1.127986593019159e-14
    vertex 81.82334265383089 67.83581846635394 5.999999999999989
    vertex 85.78918023164748 64.43175745204755 5.999999999999989
  endloop
endfacet
facet normal 0.4793201850042012 0.8776401086137406 0.0
  outer loop
    vertex 85.78918023164748 64.43175745204755 5.999999999999989
    vertex 90.37609882442001 61.92662733446473 -1.127986593019159e-14
    vertex 85.78918023164748 64.43175745204755 -1.127986593019159e-14
  endloop
endfacet
facet normal 0.4793201850042012 0.8776401086137406 0.0
  outer loop
    vertex 90.37609882442001 61.92662733446473 -1.127986593019159e-14
    vertex 85.78918023164748 64.43175745204755 5.999999999999989
    vertex 90.37609882442001 61.92662733446473 5.999999999999989
  endloop
endfacet
facet normal 0.2863742500337802 0.9581178366555912 0.0
  outer loop
    vertex 90.37609882442001 61.92662733446473 5.999999999999989
    vertex 95.3836280791669 60.42991432069184 -1.127986593019159e-14
    vertex 90.37609882442001 61.92662733446473 -1.127986593019159e-14
  endloop
endfacet
facet normal 0.2863742500337802 0.9581178366555912 0.0
  outer loop
    vertex 95.3836280791669 60.42991432069184 -1.127986593019159e-14
    vertex 90.37609882442001 61.92662733446473 5.999999999999989
    vertex 95.3836280791669 60.42991432069184 5.999999999999989
  endloop
endfacet
facet normal 0.08091238616076521 0.996721217676122 0.0
  outer loop
    vertex 95.3836280791669 60.42991432069184 5.999999999999989
    vertex 100.59291493866435 60.00703195145666 -1.127986593019159e-14
    vertex 95.3836280791669 60.42991432069184 -1.127986593019159e-14
  endloop
endfacet
facet normal 0.08091238616076521 0.996721217676122 0.0
  outer loop
    vertex 100.59291493866435 60.00703195145666 -1.127986593019159e-14
    vertex 95.3836280791669 60.42991432069184 5.999999999999989
    vertex 100.59291493866435 60.00703195145666 5.999999999999989
  endloop
endfacet
facet normal -0.12808573724817626 0.9917630986851604 -0.0
  outer loop
    vertex 100.59291493866435 60.00703195145666 5.999999999999989
    vertex 105.77628857022063 60.676462215509474 -1.127986593019159e-14
    vertex 100.59291493866435 60.00703195145666 -1.127986593019159e-14
  endloop
endfacet
facet normal -0.12808573724817626 0.9917630986851604 -0.0
  outer loop
    vertex 105.77628857022063 60.676462215509474 -1.127986593019159e-14
    vertex 100.59291493866435 60.00703195145666 5.999999999999989
    vertex 105.77628857022063 60.676462215509474 5.999999999999989
  endloop
endfacet
facet normal -0.3314858993158172 0.9434601732743063 -0.0
  outer loop
    vertex 105.77628857022063 60.676462215509474 5.999999999999989
    vertex 110.70721067355052 62.4089477980284 -1.127986593019159e-14
    vertex 105.77628857022063 60.676462215509474 -1.127986593019159e-14
  endloop
endfacet
facet normal -0.3314858993158172 0.9434601732743063 -0.0
  outer loop
    vertex 110.70721067355052 62.4089477980284 -1.127986593019159e-14
    vertex 105.77628857022063 60.676462215509474 5.999999999999989
    vertex 110.70721067355052 62.4089477980284 5.999999999999989
  endloop
endfacet
facet normal -0.5203985369375319 0.8539235110671659 -0.0
  outer loop
    vertex 110.70721067355052 62.4089477980284 5.999999999999989
    vertex 115.170176291549 65.12877076566917 -1.127986593019159e-14
    vertex 110.70721067355052 62.4089477980284 -1.127986593019159e-14
  endloop
endfacet
facet normal -0.5203985369375319 0.8539235110671659 -0.0
  outer loop
    vertex 115.170176291549 65.12877076566917 -1.127986593019159e-14
    vertex 110.70721067355052 62.4089477980284 5.999999999999989
    vertex 115.170176291549 65.12877076566917 5.999999999999989
  endloop
endfacet
facet normal -0.6865672613458406 0.7270662938467664 -0.0
  outer loop
    vertex 115.170176291549 65.12877076566917 5.999999999999989
    vertex 118.97013241102454 68.71706180358727 -1.127986593019159e-14
    vertex 115.170176291549 65.12877076566917 -1.127986593019159e-14
  endloop
endfacet
facet normal -0.6865672613458406 0.7270662938467664 -0.0
  outer loop
    vertex 118.97013241102454 68.71706180358727 -1.127986593019159e-14
    vertex 115.170176291549 65.12877076566917 5.999999999999989
    vertex 118.97013241102454 68.71706180358727 5.999999999999989
  endloop
endfacet
facet normal -0.8227297019180982 0.5684327907341002 -0.0
  outer loop
    vertex 121.94100271534349 73.01699537489495 5.999999999999989
    vertex 118.97013241102454 68.71706180358727 -1.127986593019159e-14
    vertex 118.97013241102454 68.71706180358727 5.999999999999989
  endloop
endfacet
facet normal -0.8227297019180982 0.5684327907341002 -0.0
  outer loop
    vertex 118.97013241102454 68.71706180358727 -1.127986593019159e-14
    vertex 121.94100271534349 73.01699537489495 5.999999999999989
    vertex 121.94100271534349 73.01699537489495 -1.127986593019159e-14
  endloop
endfacet
facet normal -0.9229349066214123 0.3849560470231961 -0.0
  outer loop
    vertex 123.95294591638975 77.84064374915552 5.999999999999989
    vertex 121.94100271534349 73.01699537489495 -1.127986593019159e-14
    vertex 121.94100271534349 73.01699537489495 5.999999999999989
  endloop
endfacet
facet normal -0.9229349066214123 0.3849560470231961 -0.0
  outer loop
    vertex 121.94100271534349 73.01699537489495 -1.127986593019159e-14
    vertex 123.95294591638975 77.84064374915552 5.999999999999989
    vertex 123.95294591638975 77.84064374915552 -1.127986593019159e-14
  endloop
endfacet
facet normal -0.9828034271723252 0.18465487683332943 -0.0
  outer loop
    vertex 124.91803044190304 82.97719034598084 5.999999999999989
    vertex 123.95294591638975 77.84064374915552 -1.127986593019159e-14
    vertex 123.95294591638975 77.84064374915552 5.999999999999989
  endloop
endfacet
facet normal -0.9828034271723252 0.18465487683332943 -0.0
  outer loop
    vertex 123.95294591638975 77.84064374915552 -1.127986593019159e-14
    vertex 124.91803044190304 82.97719034598084 5.999999999999989
    vertex 124.91803044190304 82.97719034598084 -1.127986593019159e-14
  endloop
endfacet
facet normal -0.999718721941734 -0.023716597546575475 -0.0
  outer loop
    vertex 124.794077467129 88.20214343120442 5.999999999999989
    vertex 124.91803044190304 82.97719034598084 -1.127986593019159e-14
    vertex 124.91803044190304 82.97719034598084 5.999999999999989
  endloop
endfacet
facet normal -0.999718721941734 -0.023716597546575475 -0.0
  outer loop
    vertex 124.91803044190304 82.97719034598084 -1.127986593019159e-14
    vertex 124.794077467129 88.20214343120442 5.999999999999989
    vertex 124.794077467129 88.20214343120442 -1.127986593019159e-14
  endloop
endfacet
facet normal -0.9729415113796215 -0.2310515428088243 -0.0
  outer loop
    vertex 123.58650433185765 93.28714748289542 5.999999999999989
    vertex 124.794077467129 88.20214343120442 -1.127986593019159e-14
    vertex 124.794077467129 88.20214343120442 5.999999999999989
  endloop
endfacet
facet normal -0.9729415113796215 -0.2310515428088243 -0.0
  outer loop
    vertex 124.794077467129 88.20214343120442 -1.127986593019159e-14
    vertex 123.58650433185765 93.28714748289542 5.999999999999989
    vertex 123.58650433185765 93.28714748289542 -1.127986593019159e-14
  endloop
endfacet
facet normal -0.9036420880788627 -0.42828842694202357 -0.0
  outer loop
    vertex 121.34808777667914 98.00996342343828 5.999999999999989
    vertex 123.58650433185765 93.28714748289542 -1.127986593019159e-14
    vertex 123.58650433185765 93.28714748289542 5.999999999999989
  endloop
endfacet
facet normal -0.9036420880788627 -0.42828842694202357 -0.0
  outer loop
    vertex 123.58650433185765 93.28714748289542 -1.127986593019159e-14
    vertex 121.34808777667914 98.00996342343828 5.999999999999989
    vertex 121.34808777667914 98.00996342343828 -1.127986593019159e-14
  endloop
endfacet
facet normal -0.7948491693732319 -0.606807051661962 -0.0
  outer loop
    vertex 118.17665734616911 102.164181533646 5.999999999999989
    vertex 121.34808777667914 98.00996342343828 -1.127986593019159e-14
    vertex 121.34808777667914 98.00996342343828 5.999999999999989
  endloop
endfacet
facet normal -0.7948491693732319 -0.606807051661962 -0.0
  outer loop
    vertex 121.34808777667914 98.00996342343828 -1.127986593019159e-14
    vertex 118.17665734616911 102.164181533646 5.999999999999989
    vertex 118.17665734616911 102.164181533646 -1.127986593019159e-14
  endloop
endfacet
facet normal -0.6513175278565111 -0.7588052964409798 -0.0
  outer loop
    vertex 118.17665734616911 102.164181533646 5.999999999999989
    vertex 114.21081976835252 105.56824254795241 -1.127986593019159e-14
    vertex 118.17665734616911 102.164181533646 -1.127986593019159e-14
  endloop
endfacet
facet normal -0.6513175278565111 -0.7588052964409798 -0.0
  outer loop
    vertex 114.21081976835252 105.56824254795241 -1.127986593019159e-14
    vertex 118.17665734616911 102.164181533646 5.999999999999989
    vertex 114.21081976835252 105.56824254795241 5.999999999999989
  endloop
endfacet
endsolid top3-4
